<svg width="31" height="31" viewBox="0 0 31 31" fill="none" xmlns="http://www.w3.org/2000/svg">
<path d="M15.4722 3.5625C14.4358 3.5625 13.5972 4.40112 13.5972 5.4375C13.5972 5.51807 13.6155 5.59497 13.6265 5.67188C10.3855 6.49951 7.97217 9.44385 7.97217 12.9375V21.375C7.97217 21.906 7.56567 22.3125 7.03467 22.3125H6.09717V24.1875H12.8354C12.7292 24.4841 12.6597 24.7954 12.6597 25.125C12.6597 26.6667 13.9304 27.9375 15.4722 27.9375C17.0139 27.9375 18.2847 26.6667 18.2847 25.125C18.2847 24.7954 18.2151 24.4841 18.1089 24.1875H24.8472V22.3125H23.9097C23.3787 22.3125 22.9722 21.906 22.9722 21.375V13.2012C22.9722 9.67822 20.6174 6.53613 17.3179 5.67188C17.3289 5.59497 17.3472 5.51807 17.3472 5.4375C17.3472 4.40112 16.5085 3.5625 15.4722 3.5625ZM15.062 7.3125C15.1975 7.30151 15.333 7.3125 15.4722 7.3125C15.5308 7.3125 15.5894 7.3125 15.6479 7.3125C18.7095 7.40405 21.0972 10.0884 21.0972 13.2012V21.375C21.0972 21.7046 21.1667 22.0159 21.2729 22.3125H9.67139C9.77759 22.0159 9.84717 21.7046 9.84717 21.375V12.9375C9.84717 9.96021 12.1396 7.5249 15.062 7.3125ZM15.4722 24.1875C15.9995 24.1875 16.4097 24.5977 16.4097 25.125C16.4097 25.6523 15.9995 26.0625 15.4722 26.0625C14.9448 26.0625 14.5347 25.6523 14.5347 25.125C14.5347 24.5977 14.9448 24.1875 15.4722 24.1875Z" fill="#666666"/>
<ellipse cx="24.4722" cy="5.7821" rx="3" ry="3.00653" fill="#FF6877"/>
</svg>
