<svg width="542" height="491" viewBox="0 0 542 491" fill="none" xmlns="http://www.w3.org/2000/svg">
<path d="M539.94 469.32V426.83L499.982 403.728V449.244L462.77 470.833V426.005L423.498 448.694L385.599 426.692V385.027C386.698 384.752 387.659 383.652 387.659 382.414C387.659 382.139 387.659 382.001 387.522 381.726L423.91 360.688L424.322 360.55V314.347L385.05 337.036L346.465 314.759L307.879 337.036L269.981 315.034V271.169L309.252 248.48L269.981 225.791V180.275L229.885 203.239L229.473 203.377V247.242L194.183 226.753C194.183 226.478 194.32 226.341 194.32 226.066C194.32 224.828 193.497 223.728 192.261 223.453V137.235L230.571 115.095L230.983 114.958V68.7548L191.3 91.7189L190.888 91.8564V136.547L152.989 158.549L115.777 136.96L153.401 115.233L153.813 115.095V68.8923L114.129 91.8564L113.717 91.9939V180.55L78.4273 160.061C78.4273 159.786 78.5646 159.649 78.5646 159.374C78.5646 158.136 77.7407 157.036 76.5049 156.761V114.27L38.6062 92.2689L75.8183 70.6799L76.5049 71.0924V70.2674L77.1915 69.8549L76.5049 69.4423V24.7517L39.5674 3.43774C39.5674 3.16272 39.7047 3.02521 39.7047 2.75019C39.7047 1.23759 38.4689 0 36.9584 0C35.448 0 34.2121 1.23759 34.2121 2.75019C34.2121 3.98778 35.036 5.08787 36.2719 5.36288V47.0283L-3 69.8549L35.5853 92.1314L-1.90149 113.858L-2.31343 113.995V158.686L-3 159.099L-2.31343 159.511V204.202L35.5853 226.066L-2.0388 247.93L-2.31343 248.067V294.27L37.3704 271.306L37.7823 271.169V227.303V181.788L73.7586 160.886C74.0333 161.161 74.5825 161.436 74.9945 161.574V204.064L112.893 226.066L75.2691 247.93L74.8571 248.067V292.758L38.8808 313.522C38.3316 312.972 37.7823 312.697 36.9584 312.697C35.448 312.697 34.2121 313.934 34.2121 315.447C34.2121 316.685 35.036 317.785 36.2719 318.06V404.416L-2.0388 426.555L-2.31343 426.692V472.895V516.761L36.2719 539.037V539.862L36.9584 539.45L37.645 539.862V539.037L75.9557 516.898L76.3676 516.761V470.558L39.0181 492.147C38.4689 491.597 37.9196 491.322 37.0957 491.322C36.4092 491.322 35.7226 491.597 35.1733 492.147L-0.253716 471.795L36.4092 450.619L75.681 427.93L114.953 450.756V405.241L153.264 383.102L153.675 382.964V340.474C154.774 340.199 155.735 339.099 155.735 337.861C155.735 336.348 154.499 335.111 152.989 335.111C151.478 335.111 150.243 336.348 150.243 337.861C150.243 338.136 150.243 338.273 150.38 338.548L113.992 359.587L113.58 359.725V403.591L76.3676 382.001V293.445L114.266 271.581L153.538 294.27V248.755L189.514 227.853C189.789 228.128 190.338 228.403 190.75 228.541V271.031L227.413 292.208C227.413 292.483 227.276 292.62 227.276 292.895C227.276 293.17 227.276 293.308 227.413 293.583L191.025 314.622L190.613 314.759V404.003L154.774 424.767C154.225 424.079 153.538 423.667 152.577 423.667C151.067 423.667 149.831 424.904 149.831 426.417C149.831 427.655 150.655 428.755 151.89 429.03V472.758L190.476 450.481V494.347L230.434 517.448V471.383L192.535 449.519L229.885 427.93L265.861 448.831C265.861 449.106 265.724 449.244 265.724 449.519C265.724 451.031 266.96 452.269 268.47 452.269C269.981 452.269 271.216 451.031 271.216 449.519C271.216 448.281 270.393 447.181 269.157 446.906V360.55L307.055 338.548L344.268 360.138L306.643 381.864L306.232 382.001V426.692L305.545 427.105L306.232 427.517V471.383L267.921 493.522L267.509 493.659V539.862L307.193 516.898L307.605 516.761V472.895L344.817 494.484V495.309L345.503 494.897L384.775 517.586V474.27C385.187 474.133 385.736 473.858 386.011 473.583L421.987 494.484V540L460.573 517.723L500.943 494.759L501.355 494.622V450.756L536.645 471.245C536.645 471.52 536.507 471.658 536.507 471.933C536.507 473.445 537.743 474.683 539.254 474.683C540.764 474.683 542 473.445 542 471.933C542 470.558 541.039 469.595 539.94 469.32ZM114.953 92.5439L152.165 70.9549V113.995L114.953 135.584V92.5439ZM36.2719 270.481L-0.940287 291.933V248.892L36.2719 227.303V270.481ZM74.9945 473.033V516.073L37.7823 537.662V496.822C38.8808 496.547 39.842 495.447 39.842 494.209C39.842 493.934 39.842 493.797 39.7047 493.522L74.9945 473.033ZM36.4092 496.822V537.662L-0.940287 516.073V473.033L34.3495 493.522C34.3495 493.797 34.2121 493.934 34.2121 494.209C34.3495 495.447 35.1733 496.409 36.4092 496.822ZM461.259 471.383L424.047 492.972V449.931L461.259 428.342V471.383ZM384.089 469.32C383.677 469.458 383.128 469.733 382.853 470.008L347.563 449.519L384.089 428.342V469.32ZM346.739 404.416V361.375L382.029 381.864C382.029 382.139 381.892 382.277 381.892 382.552C381.892 383.789 382.716 384.889 383.951 385.164V426.005L346.739 404.416ZM384.089 379.939C383.677 380.076 383.128 380.351 382.853 380.626L347.563 360.138L384.089 338.961V379.939ZM346.053 405.653L383.265 427.242L366.375 437.005L346.053 448.694L308.841 427.105L325.73 417.341L346.053 405.653ZM346.739 450.756L382.029 471.245C382.029 471.52 381.892 471.658 381.892 471.933C381.892 472.208 381.892 472.345 382.029 472.62L346.739 493.109V450.756ZM422.674 359.725L386.698 380.626C386.423 380.351 385.874 380.076 385.462 379.939V338.273L422.674 316.685V359.725ZM230.846 290.558V249.717L268.058 271.306V314.347L232.768 293.858C232.768 293.583 232.906 293.445 232.906 293.17C232.906 291.933 232.082 290.833 230.846 290.558ZM230.846 295.783C231.258 295.646 231.807 295.371 232.082 295.095L267.372 315.584L230.846 336.623V295.783ZM268.882 270.069L231.67 248.48L249.933 237.892L268.882 226.891L306.094 248.48L268.882 270.069ZM230.846 204.202L268.058 182.613V225.653L230.846 247.242V204.202ZM192.261 92.5439L229.473 70.9549V113.995L192.261 135.584V92.5439ZM190.888 181.1L178.667 188.113L153.538 202.689V159.649L190.75 138.06V181.1H190.888ZM152.165 247.242L133.49 236.516L114.816 225.791V182.613L133.49 193.338L152.165 204.064V247.242ZM114.953 138.06L152.165 159.649V202.689L133.49 191.963L114.816 181.238V138.06H114.953ZM74.9945 156.486C74.5825 156.623 74.0333 156.898 73.7586 157.173L37.7823 136.272V93.2315L74.9945 114.82V156.486ZM74.9945 25.5768V68.6173L37.7823 47.0283V5.36288C38.1943 5.22538 38.7435 4.95036 39.0181 4.67534L74.9945 25.5768ZM36.9584 48.2659L74.3079 69.8549L37.7823 91.0313L37.0957 91.4439L36.4092 91.0313L-0.253716 69.8549L36.9584 48.2659ZM-0.940287 114.82L36.2719 93.2315V136.272L-0.940287 157.998V114.82ZM-0.940287 160.336L36.2719 181.925V224.966L-0.940287 203.377V160.336ZM36.9584 180.688L-0.253716 159.099L16.6359 149.335L36.9584 137.647L72.9347 158.549C72.9347 158.824 72.7974 158.961 72.7974 159.236C72.7974 159.511 72.7974 159.649 72.9347 159.924L36.9584 180.688ZM76.3676 161.711C76.7795 161.574 77.3288 161.299 77.6034 161.024L113.58 181.925V224.966L76.3676 203.377V161.711ZM76.3676 248.892L113.58 227.303V270.344L76.3676 291.933V248.892ZM37.7823 318.06C38.8808 317.785 39.842 316.685 39.842 315.447C39.842 315.172 39.842 315.034 39.7047 314.759L74.9945 294.27V337.311L37.7823 358.9V318.06ZM74.9945 382.139L37.7823 403.728V360.688L74.9945 339.099V382.139ZM36.2719 449.106L-0.940287 470.695V427.655L36.2719 406.066V449.106ZM37.7823 405.241L74.9945 383.652V426.692L37.7823 448.281V405.241ZM114.953 360.55L150.929 339.649C151.204 339.924 151.753 340.199 152.165 340.336V382.001L114.953 403.591V360.55ZM113.58 406.066V448.419L76.3676 426.83V383.789L113.58 405.378V406.066ZM152.165 291.933L114.953 270.344V227.303L133.628 238.029L152.302 248.755V291.933H152.165ZM153.538 247.242V204.202L174.822 191.826L190.75 182.613V223.453C189.652 223.728 188.691 224.828 188.691 226.066C188.691 226.341 188.691 226.478 188.828 226.753L153.538 247.242ZM192.261 270.481V228.816C192.673 228.678 193.222 228.403 193.497 228.128L229.473 249.03V290.695C229.061 290.833 228.512 291.108 228.237 291.383L192.261 270.481ZM192.261 315.859L228.237 294.958C228.512 295.233 229.061 295.508 229.473 295.646V337.311L228.786 337.723L192.261 358.9V315.859ZM192.261 405.241L229.473 383.652V426.692L192.261 448.281V405.241ZM229.473 382.139L192.261 403.728V360.688L229.473 339.099V382.139ZM153.538 470.695V429.305C154.637 429.03 155.598 427.93 155.598 426.692C155.598 426.555 155.598 426.555 155.598 426.417L190.888 406.066V449.106L153.538 470.695ZM229.473 515.386L192.261 493.797V450.756L229.473 472.345V515.386ZM268.196 446.906C267.784 447.044 267.234 447.319 266.96 447.594L230.983 426.692V383.652L268.196 405.241V446.906ZM230.846 382.139V339.099L268.058 360.688V403.728L230.846 382.139ZM268.882 359.312L231.67 337.723L268.882 316.134L269.569 316.547L306.094 337.723L268.882 359.312ZM346.053 316.272L383.265 337.861L346.739 359.037L346.053 359.45L345.366 359.037L308.841 337.861L346.053 316.272ZM308.154 382.964L345.366 361.375V404.416L308.154 426.005V382.964ZM306.781 516.073L269.569 537.662V494.622L306.781 473.033V516.073ZM308.154 471.52V428.48L345.366 450.069V493.109L308.154 471.52ZM347.426 494.209L382.716 473.72C382.99 473.995 383.539 474.27 383.951 474.408V515.386L347.426 494.209ZM385.462 469.32V428.48L422.674 450.069V493.109L387.384 472.62C387.384 472.345 387.522 472.208 387.522 471.933C387.384 470.558 386.56 469.595 385.462 469.32ZM424.047 537.662V494.622L461.259 473.033V516.073L424.047 537.662ZM499.982 493.797L462.632 515.386V472.345L499.845 450.756V493.797H499.982ZM501.355 449.106V406.066L538.567 427.655V469.32C538.155 469.458 537.743 469.733 537.331 470.008L501.355 449.106Z" fill="#1A73E8" fill-opacity="0.15"/>
</svg>
