<svg width="537" height="516" viewBox="0 0 537 516" fill="none" xmlns="http://www.w3.org/2000/svg">
<path d="M2.05969 46.6799V89.1704L42.0182 112.272V66.7563L79.2303 45.1674V89.9954L118.502 67.3064L156.401 89.3079V130.973C155.302 131.248 154.341 132.348 154.341 133.586C154.341 133.861 154.341 133.999 154.478 134.274L118.09 155.312L117.678 155.45V201.653L156.95 178.964L195.535 201.241L234.121 178.964L272.019 200.966V244.831L232.748 267.52L272.019 290.209V335.725L312.115 312.761L312.527 312.623V268.758L347.817 289.247C347.817 289.522 347.68 289.659 347.68 289.934C347.68 291.172 348.503 292.272 349.739 292.547V378.765L311.429 400.905L311.017 401.042V447.245L350.7 424.281L351.112 424.144V379.453L389.011 357.451L426.223 379.04L388.599 400.767L388.187 400.905V447.108L427.871 424.144L428.283 424.006V335.45L463.573 355.939C463.573 356.214 463.435 356.351 463.435 356.626C463.435 357.864 464.259 358.964 465.495 359.239V401.73L503.394 423.731L466.182 445.32L465.495 444.908V445.733L464.809 446.145L465.495 446.558V491.248L502.433 512.562C502.433 512.837 502.295 512.975 502.295 513.25C502.295 514.762 503.531 516 505.042 516C506.552 516 507.788 514.762 507.788 513.25C507.788 512.012 506.964 510.912 505.728 510.637V468.972L545 446.145L506.415 423.869L543.901 402.142L544.313 402.005V357.314L545 356.901L544.313 356.489V311.798L506.415 289.934L544.039 268.07L544.313 267.933V221.73L504.63 244.694L504.218 244.831V288.697V334.212L468.241 355.114C467.967 354.839 467.417 354.564 467.006 354.426V311.936L429.107 289.934L466.731 268.07L467.143 267.933V223.242L503.119 202.478C503.668 203.028 504.218 203.303 505.042 203.303C506.552 203.303 507.788 202.066 507.788 200.553C507.788 199.315 506.964 198.215 505.728 197.94V111.584L544.039 89.4454L544.313 89.3079V43.1047V-0.760864L505.728 -23.0374V-23.8624L505.042 -23.45L504.355 -23.8624V-23.0374L466.044 -0.898315L465.632 -0.760864V45.4423L502.982 23.8534C503.531 24.4034 504.08 24.6784 504.904 24.6784C505.591 24.6784 506.277 24.4034 506.827 23.8534L542.254 44.2048L505.591 65.3812L466.319 88.0703L427.047 65.2437V110.759L388.736 132.898L388.325 133.036V175.526C387.226 175.801 386.265 176.901 386.265 178.139C386.265 179.652 387.501 180.889 389.011 180.889C390.522 180.889 391.757 179.652 391.757 178.139C391.757 177.864 391.757 177.727 391.62 177.452L428.008 156.413L428.42 156.275V112.409L465.632 133.999V222.555L427.734 244.419L388.462 221.73V267.245L352.486 288.147C352.211 287.872 351.662 287.597 351.25 287.459V244.969L314.587 223.792C314.587 223.517 314.724 223.38 314.724 223.105C314.724 222.83 314.724 222.692 314.587 222.417L350.975 201.378L351.387 201.241V111.997L387.226 91.2331C387.775 91.9206 388.462 92.3331 389.423 92.3331C390.933 92.3331 392.169 91.0955 392.169 89.5829C392.169 88.3453 391.345 87.2452 390.11 86.9702V43.2422L351.524 65.5187V21.6532L311.566 -1.44843V44.6173L349.465 66.4813L312.115 88.0703L276.139 67.1689C276.139 66.8939 276.276 66.7563 276.276 66.4813C276.276 64.9687 275.04 63.7311 273.53 63.7311C272.019 63.7311 270.784 64.9687 270.784 66.4813C270.784 67.7189 271.607 68.8189 272.843 69.094V155.45L234.945 177.452L197.732 155.862L235.357 134.136L235.768 133.999V89.3079L236.455 88.8954L235.768 88.4828V44.6173L274.079 22.4783L274.491 22.3407V-23.8624L234.807 -0.898315L234.395 -0.760864V43.1047L197.183 21.5157V20.6906L196.497 21.1032L157.225 -1.58588V41.7296C156.813 41.8671 156.264 42.1422 155.989 42.4172L120.013 21.5157V-24L81.4273 -1.72345L41.0569 21.2407L40.645 21.3781V65.2437L5.35522 44.7548C5.35522 44.4797 5.49255 44.3422 5.49255 44.0672C5.49255 42.5546 4.25671 41.317 2.74628 41.317C1.23584 41.317 0 42.5546 0 44.0672C0 45.4423 0.961182 46.4049 2.05969 46.6799ZM427.047 423.456L389.835 445.045V402.005L427.047 380.416V423.456ZM505.728 245.519L542.94 224.067V267.108L505.728 288.697V245.519ZM467.006 42.9672V-0.0733032L504.218 -21.6624V19.178C503.119 19.453 502.158 20.5532 502.158 21.7907C502.158 22.0658 502.158 22.2032 502.295 22.4783L467.006 42.9672ZM505.591 19.178V-21.6624L542.94 -0.0733032V42.9672L507.651 22.4783C507.651 22.2032 507.788 22.0658 507.788 21.7907C507.651 20.5532 506.827 19.5905 505.591 19.178ZM80.7407 44.6173L117.953 23.0283V66.0687L80.7407 87.6577V44.6173ZM157.911 46.6799C158.323 46.5424 158.872 46.2674 159.147 45.9924L194.437 66.4813L157.911 87.6577V46.6799ZM195.261 111.584V154.625L159.971 134.136C159.971 133.861 160.108 133.723 160.108 133.448C160.108 132.211 159.284 131.111 158.049 130.836V89.9954L195.261 111.584ZM157.911 136.061C158.323 135.924 158.872 135.649 159.147 135.374L194.437 155.862L157.911 177.039V136.061ZM195.947 110.347L158.735 88.7578L175.625 78.9947L195.947 67.3064L233.159 88.8954L216.27 98.6585L195.947 110.347ZM195.261 65.2437L159.971 44.7548C159.971 44.4797 160.108 44.3422 160.108 44.0672C160.108 43.7922 160.108 43.6547 159.971 43.3797L195.261 22.8908V65.2437ZM119.326 156.275L155.302 135.374C155.577 135.649 156.126 135.924 156.538 136.061V177.727L119.326 199.315V156.275ZM311.154 225.442V266.283L273.942 244.694V201.653L309.232 222.142C309.232 222.417 309.094 222.555 309.094 222.83C309.094 224.067 309.918 225.167 311.154 225.442ZM311.154 220.217C310.742 220.354 310.193 220.63 309.918 220.905L274.628 200.416L311.154 179.377V220.217ZM273.118 245.931L310.33 267.52L292.067 278.108L273.118 289.109L235.906 267.52L273.118 245.931ZM311.154 311.798L273.942 333.387V290.347L311.154 268.758V311.798ZM349.739 423.456L312.527 445.045V402.005L349.739 380.416V423.456ZM351.112 334.9L363.333 327.887L388.462 313.311V356.351L351.25 377.94V334.9H351.112ZM389.835 268.758L408.51 279.484L427.184 290.209V333.387L408.51 322.662L389.835 311.936V268.758ZM427.047 377.94L389.835 356.351V313.311L408.51 324.037L427.184 334.762V377.94H427.047ZM467.006 359.514C467.417 359.377 467.967 359.102 468.241 358.827L504.218 379.728V422.769L467.006 401.18V359.514ZM467.006 490.423V447.383L504.218 468.972V510.637C503.806 510.775 503.256 511.05 502.982 511.325L467.006 490.423ZM505.042 467.734L467.692 446.145L504.218 424.969L504.904 424.556L505.591 424.969L542.254 446.145L505.042 467.734ZM542.94 401.18L505.728 422.769V379.728L542.94 358.002V401.18ZM542.94 355.664L505.728 334.075V291.034L542.94 312.623V355.664ZM505.042 335.312L542.254 356.901L525.364 366.665L505.042 378.353L469.065 357.451C469.065 357.176 469.203 357.039 469.203 356.764C469.203 356.489 469.203 356.351 469.065 356.076L505.042 335.312ZM465.632 354.289C465.22 354.426 464.671 354.701 464.397 354.976L428.42 334.075V291.034L465.632 312.623V354.289ZM465.632 267.108L428.42 288.697V245.656L465.632 224.067V267.108ZM504.218 197.94C503.119 198.215 502.158 199.315 502.158 200.553C502.158 200.828 502.158 200.966 502.295 201.241L467.006 221.73V178.689L504.218 157.1V197.94ZM467.006 133.861L504.218 112.272V155.312L467.006 176.901V133.861ZM505.728 66.8939L542.94 45.3048V88.3453L505.728 109.934V66.8939ZM504.218 110.759L467.006 132.348V89.3079L504.218 67.7189V110.759ZM427.047 155.45L391.071 176.351C390.796 176.076 390.247 175.801 389.835 175.664V133.999L427.047 112.409V155.45ZM428.42 109.934V67.5814L465.632 89.1704V132.211L428.42 110.622V109.934ZM389.835 224.067L427.047 245.656V288.697L408.372 277.971L389.698 267.245V224.067H389.835ZM388.462 268.758V311.798L367.178 324.174L351.25 333.387V292.547C352.348 292.272 353.309 291.172 353.309 289.934C353.309 289.659 353.309 289.522 353.172 289.247L388.462 268.758ZM349.739 245.519V287.184C349.327 287.322 348.778 287.597 348.503 287.872L312.527 266.97V225.305C312.939 225.167 313.488 224.892 313.763 224.617L349.739 245.519ZM349.739 200.141L313.763 221.042C313.488 220.767 312.939 220.492 312.527 220.354V178.689L313.214 178.277L349.739 157.1V200.141ZM349.739 110.759L312.527 132.348V89.3079L349.739 67.7189V110.759ZM312.527 133.861L349.739 112.272V155.312L312.527 176.901V133.861ZM388.462 45.3048V86.6952C387.363 86.9702 386.402 88.0703 386.402 89.3079C386.402 89.4454 386.402 89.4454 386.402 89.5829L351.112 109.934V66.8939L388.462 45.3048ZM312.527 0.614258L349.739 22.2032V65.2437L312.527 43.6547V0.614258ZM273.804 69.094C274.216 68.9565 274.766 68.6814 275.04 68.4064L311.017 89.3079V132.348L273.804 110.759V69.094ZM311.154 133.861V176.901L273.942 155.312V112.272L311.154 133.861ZM273.118 156.688L310.33 178.277L273.118 199.866L272.431 199.453L235.906 178.277L273.118 156.688ZM195.947 199.728L158.735 178.139L195.261 156.963L195.947 156.55L196.634 156.963L233.159 178.139L195.947 199.728ZM233.846 133.036L196.634 154.625V111.584L233.846 89.9954V133.036ZM235.219 -0.0733032L272.431 -21.6624V21.3781L235.219 42.9672V-0.0733032ZM233.846 44.4798V87.5203L196.634 65.9313V22.8908L233.846 44.4798ZM194.574 21.7907L159.284 42.2796C159.01 42.0046 158.461 41.7296 158.049 41.5921V0.614258L194.574 21.7907ZM156.538 46.6799V87.5203L119.326 65.9313V22.8908L154.616 43.3797C154.616 43.6547 154.478 43.7922 154.478 44.0672C154.616 45.4423 155.44 46.4049 156.538 46.6799ZM117.953 -21.6624V21.3781L80.7407 42.9672V-0.0733032L117.953 -21.6624ZM42.0182 22.2032L79.3676 0.614258V43.6547L42.1554 65.2437V22.2032H42.0182ZM40.645 66.8939V109.934L3.43286 88.3453V46.6799C3.84479 46.5424 4.25671 46.2674 4.66864 45.9924L40.645 66.8939Z" fill="#1A73E8" fill-opacity="0.15"/>
</svg>
