<svg width="24" height="20" viewBox="0 0 24 20" fill="none" xmlns="http://www.w3.org/2000/svg">
<path d="M8.71429 4.57134H13.2857V3.42848H8.71429V4.57134ZM19 10.2856V14.5713C19 14.9642 18.8601 15.3005 18.5804 15.5803C18.3006 15.86 17.9643 15.9999 17.5714 15.9999H4.42857C4.03571 15.9999 3.6994 15.86 3.41964 15.5803C3.13988 15.3005 3 14.9642 3 14.5713V10.2856H9V11.7142C9 11.869 9.05655 12.0029 9.16964 12.116C9.28274 12.2291 9.41667 12.2856 9.57143 12.2856H12.4286C12.5833 12.2856 12.7173 12.2291 12.8304 12.116C12.9435 12.0029 13 11.869 13 11.7142V10.2856H19ZM12.1429 10.2856V11.4285H9.85714V10.2856H12.1429ZM19 5.99991V9.42848H3V5.99991C3 5.60705 3.13988 5.27074 3.41964 4.99098C3.6994 4.71122 4.03571 4.57134 4.42857 4.57134H7.57143V3.14277C7.57143 2.90467 7.65476 2.70229 7.82143 2.53562C7.9881 2.36896 8.19048 2.28562 8.42857 2.28562H13.5714C13.8095 2.28562 14.0119 2.36896 14.1786 2.53562C14.3452 2.70229 14.4286 2.90467 14.4286 3.14277V4.57134H17.5714C17.9643 4.57134 18.3006 4.71122 18.5804 4.99098C18.8601 5.27074 19 5.60705 19 5.99991Z" fill="#5E84B6"/>
</svg>
