<svg width="19" height="19" viewBox="0 0 19 19" fill="none" xmlns="http://www.w3.org/2000/svg">
<path d="M15.8474 0.608521C15.2732 0.608521 14.7107 0.831177 14.2771 1.26477L6.84741 8.67102L6.68335 8.83508L6.63647 9.06946L6.12085 11.6945L5.88647 12.796L6.98804 12.5616L9.61304 12.046L9.84741 11.9991L10.0115 11.8351L17.4177 4.4054C18.282 3.54114 18.282 2.12903 17.4177 1.26477C16.9841 0.831177 16.4216 0.608521 15.8474 0.608521ZM15.8474 2.06165C16.0232 2.06165 16.196 2.15247 16.363 2.31946C16.697 2.65344 16.697 3.01672 16.363 3.35071L9.09741 10.6163L7.80835 10.8741L8.06616 9.58508L15.3318 2.31946C15.4988 2.15247 15.6716 2.06165 15.8474 2.06165ZM0.0974121 3.58508V18.5851H15.0974V8.69446L13.5974 10.1945V17.0851H1.59741V5.08508H8.48804L9.98804 3.58508H0.0974121Z" fill="#2A6ACA"/>
</svg>
