<svg width="25" height="25" viewBox="0 0 25 25" fill="none" xmlns="http://www.w3.org/2000/svg">
<path d="M0 4.78885C0.131579 4.60617 0.328947 4.55397 0.552632 4.55397C1.63158 4.56702 2.72368 4.56702 3.80263 4.55397C3.93421 4.55397 4.06579 4.50178 4.17105 4.42349C4.47368 4.20166 4.76316 3.96679 5.05263 3.73191C5.27632 3.56228 5.5 3.57533 5.63158 3.74496C5.77632 3.92764 5.72368 4.13642 5.51316 4.30605C5.1579 4.58007 4.81579 4.86714 4.46053 5.12811C4.32895 5.21945 4.14474 5.29775 3.97368 5.29775C3 5.31079 2.02632 5.3108 1.03947 5.3108C0.947368 5.3108 0.855263 5.3108 0.75 5.3108C0.75 7.24199 0.75 9.14709 0.75 11.0913C1.34211 11.0913 1.93421 11.1044 2.52632 11.0913C3.27632 11.0783 4.01316 11.1435 4.71053 11.3915C5.17105 11.5611 5.61842 11.7699 6.06579 11.9786C6.26316 12.07 6.46053 12.1744 6.69737 12.2918C6.78947 11.0783 7.11842 9.96916 7.6579 8.88612C7.34211 8.96441 7.03947 9.0688 6.73684 9.10795C6.4079 9.16014 6.07895 9.18624 5.75 9.19929C5.47368 9.21234 5.32895 9.08185 5.31579 8.86002C5.30263 8.62515 5.46053 8.48161 5.73684 8.48161C6.60526 8.45552 7.42105 8.27284 8.11842 7.75089C9 7.09846 9.47369 6.21115 9.71053 5.16726C9.80263 4.73666 9.96053 4.63227 10.3684 4.78885C11.1579 5.07592 11.9605 5.36299 12.75 5.63701C13.4868 5.89798 14.1974 5.65006 14.6184 4.99763C14.5658 4.95848 14.5 4.91934 14.4474 4.89324C13.2368 4.2669 12.0263 3.64057 10.8158 3.02728C9.42105 2.32266 8.07895 2.42705 6.78947 3.31435C6.53947 3.48399 6.32895 3.47094 6.19737 3.28826C6.06579 3.10558 6.11842 2.8968 6.34211 2.72716C7.72368 1.74852 9.19737 1.57889 10.7763 2.17912C10.8421 2.20522 10.8947 2.23132 11.0132 2.28351C10.9079 1.99644 10.8026 1.74852 10.7105 1.50059C10.5263 0.991696 10.6842 0.469751 11.1184 0.19573C11.2895 0.0913405 11.5132 0.0130486 11.7105 0C13.4737 0 15.2368 0 17 0C17.7237 0 18.25 0.704626 18.0263 1.3962C17.8553 1.9051 17.6447 2.414 17.4605 2.90985C17.4342 2.98814 17.4079 3.05338 17.3816 3.13167C18.3158 3.53618 18.4474 4.43654 17.9211 5.10202C18.2237 5.37604 18.5526 5.63701 18.8421 5.92408C20.3553 7.38553 21.4079 9.10795 21.8553 11.1827C22.0263 11.9917 22.0789 12.8007 21.9079 13.6097C21.6711 14.7189 21.0526 15.567 20.0789 16.1412C19.6447 16.3891 19.1711 16.5718 18.7105 16.7675C18.4737 16.8719 18.2632 16.7544 18.1974 16.5457C18.1316 16.3499 18.2368 16.1542 18.4737 16.0759C19.0526 15.8802 19.6053 15.6323 20.0921 15.2408C20.8289 14.6536 21.2237 13.8707 21.2632 12.9442C21.3289 11.0913 20.6579 9.46026 19.6184 7.95967C18.9737 7.03322 18.1842 6.2503 17.2763 5.58482C17.1711 5.50652 17.0132 5.45433 16.8816 5.45433C16.4079 5.44128 15.9211 5.44128 15.4474 5.45433C15.3421 5.45433 15.1974 5.51957 15.1316 5.61091C14.5 6.36773 13.5395 6.6548 12.5921 6.35469C12.1579 6.21115 11.7237 6.04152 11.2895 5.89798C11.1842 5.87189 11.0526 5.88494 10.9868 5.93713C9.26316 7.37248 8.05263 9.13405 7.59211 11.3523C7.44737 12.0569 7.38158 12.7746 7.53947 13.4923C7.77632 14.6014 8.5 15.3321 9.51316 15.8019C10.4474 16.2456 11.4474 16.4543 12.4737 16.5196C13.5395 16.5848 14.6184 16.5718 15.6842 16.5718C16.0658 16.5718 16.4474 16.4935 16.8289 16.4543C16.9079 16.4413 16.9868 16.4282 17.0658 16.4282C17.2895 16.4282 17.4474 16.5587 17.4737 16.7544C17.4868 16.9502 17.3684 17.1068 17.1579 17.1459C16.8026 17.1981 16.4474 17.2503 16.0921 17.2764C14.25 17.4069 12.3947 17.4069 10.5921 16.9502C9.98684 16.7936 9.38158 16.5587 8.82895 16.2717C7.63158 15.6453 6.93421 14.6275 6.75 13.2966C6.73684 13.2313 6.71053 13.1269 6.65789 13.1008C5.85526 12.7224 5.11842 12.2266 4.23684 12.0308C3.73684 11.9265 3.22368 11.8743 2.72368 11.8482C2 11.8221 1.27632 11.8351 0.552632 11.8482C0.328947 11.8482 0.157895 11.809 0.0131579 11.6394C0 9.34282 0 7.07236 0 4.78885ZM14.3816 0.730724C13.5263 0.730724 12.6711 0.730724 11.8158 0.730724C11.4474 0.730724 11.3026 0.95255 11.4211 1.29182C11.5658 1.69632 11.7368 2.10083 11.8816 2.50534C12.0132 2.83155 12.4079 3.11862 12.7763 3.11862C13.9737 3.11862 15.1842 3.11862 16.3816 3.11862C16.5263 3.11862 16.5921 3.06643 16.6447 2.93594C16.8421 2.40095 17.0526 1.86595 17.25 1.33096C17.3947 0.939502 17.25 0.717675 16.8289 0.717675C16.0263 0.730724 15.1974 0.730724 14.3816 0.730724ZM14.1316 3.87545C14.1974 3.92764 14.2105 3.94069 14.2368 3.95374C14.6053 4.18861 15.0789 4.2669 15.3421 4.67141C15.3553 4.69751 15.4211 4.69751 15.4474 4.69751C16 4.69751 16.5526 4.71056 17.1053 4.69751C17.3289 4.69751 17.4868 4.50178 17.4868 4.27995C17.4868 4.07117 17.3289 3.87545 17.1184 3.87545C16.1316 3.8624 15.1711 3.87545 14.1316 3.87545Z" fill="#5E84B6"/>
<path d="M14.6973 24.7924C14.2105 24.7141 13.7105 24.675 13.2368 24.5445C12.3158 24.2835 11.3947 23.9573 10.4868 23.6572C10.2631 23.5789 10.1842 23.3571 10.2631 23.1613C10.3421 22.9787 10.5394 22.9004 10.7631 22.9787C11.171 23.1222 11.5789 23.2918 11.9868 23.4354C13.7894 24.1008 15.6184 24.2052 17.5 23.8529C19.0921 23.5528 20.671 23.2657 22.2763 23.0178C22.8158 22.9395 23.3815 23.0047 23.9342 22.9917C24.0263 22.9917 24.1315 22.9917 24.25 22.9917C24.25 21.9609 24.25 20.93 24.25 19.8731C23.8947 19.8731 23.5526 19.847 23.1973 19.8731C22.6447 19.9253 22.1973 19.7817 21.75 19.4425C21.3947 19.1554 20.9868 18.9205 20.5658 18.7378C19.4737 18.2811 18.3421 18.3072 17.2894 18.8422C16.5263 19.2337 15.75 19.4294 14.8816 19.3642C14.4737 19.325 14.0658 19.3511 13.6579 19.3642C12.9473 19.3772 12.3421 20.0166 12.4079 20.6951C12.5 20.6951 12.5921 20.6951 12.6842 20.6951C13.9079 20.6951 15.1447 20.6951 16.3684 20.6951C16.4473 20.6951 16.5131 20.6951 16.5921 20.6951C16.8158 20.7212 16.9737 20.8648 16.9737 21.0605C16.9737 21.2562 16.8289 21.4128 16.6052 21.4389C16.5394 21.452 16.4737 21.4389 16.4079 21.4389C15.171 21.4389 13.9342 21.4781 12.6973 21.4259C12.1184 21.3998 11.5394 21.2301 10.9605 21.0866C9.48681 20.7082 8.02629 20.3167 6.56576 19.9253C6.24997 19.847 5.97366 19.8861 5.74997 20.1471C5.56576 20.3689 5.52629 20.6821 5.69734 20.9039C5.81576 21.0605 5.98681 21.191 6.17103 21.2562C7.15787 21.6346 8.14471 22 9.13155 22.3654C9.17102 22.3784 9.22366 22.4045 9.26313 22.4176C9.53945 22.5219 9.63155 22.6916 9.5526 22.9134C9.47366 23.1352 9.27629 23.2005 9.01313 23.1091C8.42103 22.8873 7.82892 22.6655 7.23681 22.4437C6.73681 22.261 6.22366 22.0783 5.73681 21.8695C5.06576 21.5824 4.72366 20.8778 4.90787 20.1993C5.09208 19.5208 5.73681 19.038 6.42103 19.1424C6.89471 19.2076 7.36839 19.3642 7.84208 19.4947C9.0526 19.8078 10.25 20.134 11.4605 20.4472C11.5131 20.4603 11.5658 20.4733 11.5526 20.4603C11.7368 20.0949 11.8684 19.7165 12.0789 19.4164C12.5 18.8553 13.0921 18.6204 13.8026 18.6204C14.4342 18.6335 15.0526 18.6335 15.6842 18.6204C15.8684 18.6204 16.0526 18.5682 16.2237 18.503C16.8421 18.2811 17.4473 17.968 18.0921 17.8244C19.3026 17.5374 20.4605 17.7722 21.5394 18.4116C21.6315 18.4638 21.7368 18.5291 21.8289 18.5943C22.3289 19.0641 22.921 19.2206 23.5921 19.1424C23.9079 19.1032 24.2237 19.1293 24.5394 19.1424C24.8684 19.1424 25 19.2859 25 19.5991C25 20.8256 25 22.0522 25 23.2788C25 23.605 24.8815 23.7355 24.5526 23.7355C24.4079 23.7355 24.2631 23.7485 24.1184 23.7355C22.8947 23.6572 21.6973 23.8529 20.4868 24.0747C19.1052 24.3227 17.7105 24.5314 16.3289 24.7533C16.2894 24.7533 16.25 24.7794 16.2105 24.7924C15.7105 24.7924 15.1973 24.7924 14.6973 24.7924Z" fill="#5E84B6"/>
<path d="M14.7105 13.1008C14.6579 13.5706 14.5658 13.7141 14.3158 13.7011C14.079 13.7011 13.9737 13.5445 13.9474 13.1791C13.6711 13.0617 13.3947 12.9573 13.1447 12.8268C12.9211 12.7094 12.8553 12.4875 12.9605 12.3049C13.0658 12.1222 13.2895 12.083 13.5132 12.2005C13.6447 12.2657 13.7895 12.331 13.9605 12.4092C13.9605 11.9004 13.9737 11.4567 13.9474 11C13.9474 10.9348 13.8553 10.8434 13.7763 10.8043C13.4737 10.6346 13.1974 10.452 13.079 10.0996C12.8816 9.51245 13.1842 8.86002 13.7763 8.586C13.8553 8.54685 13.9342 8.45551 13.9474 8.37722C13.9868 8.09015 14.1053 7.93357 14.329 7.94662C14.5526 7.95967 14.6711 8.11625 14.6842 8.40332C14.6842 8.42942 14.6842 8.45551 14.6974 8.46856C14.8947 8.5599 15.079 8.63819 15.2632 8.74258C15.5263 8.89917 15.579 9.10795 15.4474 9.30368C15.3158 9.48636 15.1184 9.4994 14.8684 9.35587C14.829 9.32977 14.7895 9.30367 14.6974 9.26453C14.6974 9.47331 14.6974 9.65599 14.6974 9.83867C14.6974 10.0213 14.6974 10.191 14.6974 10.3867C15.3684 10.6085 15.8158 11 15.7763 11.7438C15.75 12.4353 15.3553 12.866 14.7105 13.1008ZM14.7105 12.2918C14.9868 12.083 15.079 11.8612 15.0395 11.5741C15.0132 11.4045 14.9079 11.261 14.7105 11.2088C14.7105 11.5611 14.7105 11.9134 14.7105 12.2918ZM13.9474 10.0083C13.9474 9.79952 13.9474 9.59075 13.9474 9.36892C13.7237 9.66904 13.7237 9.83867 13.9474 10.0083Z" fill="#5E84B6"/>
</svg>
