<svg width="24" height="20" viewBox="0 0 24 20" fill="none" xmlns="http://www.w3.org/2000/svg">
<path d="M6.08929 11.5267C6.31548 11.3005 6.42857 11.0297 6.42857 10.7142C6.42857 10.3988 6.31548 10.1309 6.08929 9.91066C5.86905 9.68447 5.60119 9.57138 5.28571 9.57138C4.97024 9.57138 4.6994 9.68447 4.47321 9.91066C4.25298 10.1309 4.14286 10.3988 4.14286 10.7142C4.14286 11.0297 4.25298 11.3005 4.47321 11.5267C4.6994 11.747 4.97024 11.8571 5.28571 11.8571C5.60119 11.8571 5.86905 11.747 6.08929 11.5267ZM7.80357 7.52673C8.02976 7.30054 8.14286 7.02971 8.14286 6.71423C8.14286 6.39876 8.02976 6.1309 7.80357 5.91066C7.58333 5.68447 7.31548 5.57138 7 5.57138C6.68452 5.57138 6.41369 5.68447 6.1875 5.91066C5.96726 6.1309 5.85714 6.39876 5.85714 6.71423C5.85714 7.02971 5.96726 7.30054 6.1875 7.52673C6.41369 7.74697 6.68452 7.85709 7 7.85709C7.31548 7.85709 7.58333 7.74697 7.80357 7.52673ZM11.9643 11.0089L12.8661 7.59816C12.9018 7.4434 12.878 7.30054 12.7946 7.16959C12.7173 7.03269 12.6042 6.9434 12.4554 6.90173C12.3065 6.86007 12.1637 6.8809 12.0268 6.96423C11.8899 7.04161 11.8006 7.15769 11.7589 7.31245L10.8571 10.7232C10.5 10.7529 10.1815 10.8839 9.90179 11.116C9.62202 11.3422 9.43452 11.6339 9.33929 11.991C9.22024 12.4494 9.27976 12.8839 9.51786 13.2946C9.75595 13.7053 10.1042 13.9702 10.5625 14.0892C11.0208 14.2083 11.4554 14.1488 11.8661 13.9107C12.2768 13.6726 12.5417 13.3244 12.6607 12.866C12.756 12.5089 12.7381 12.1607 12.6071 11.8214C12.4762 11.4821 12.2619 11.2113 11.9643 11.0089ZM17.5179 11.5267C17.744 11.3005 17.8571 11.0297 17.8571 10.7142C17.8571 10.3988 17.744 10.1309 17.5179 9.91066C17.2976 9.68447 17.0298 9.57138 16.7143 9.57138C16.3988 9.57138 16.128 9.68447 15.9018 9.91066C15.6815 10.1309 15.5714 10.3988 15.5714 10.7142C15.5714 11.0297 15.6815 11.3005 15.9018 11.5267C16.128 11.747 16.3988 11.8571 16.7143 11.8571C17.0298 11.8571 17.2976 11.747 17.5179 11.5267ZM11.8036 5.81245C12.0298 5.58626 12.1429 5.31542 12.1429 4.99995C12.1429 4.68447 12.0298 4.41661 11.8036 4.19638C11.5833 3.97019 11.3155 3.85709 11 3.85709C10.6845 3.85709 10.4137 3.97019 10.1875 4.19638C9.96726 4.41661 9.85714 4.68447 9.85714 4.99995C9.85714 5.31542 9.96726 5.58626 10.1875 5.81245C10.4137 6.03269 10.6845 6.14281 11 6.14281C11.3155 6.14281 11.5833 6.03269 11.8036 5.81245ZM15.8036 7.52673C16.0298 7.30054 16.1429 7.02971 16.1429 6.71423C16.1429 6.39876 16.0298 6.1309 15.8036 5.91066C15.5833 5.68447 15.3155 5.57138 15 5.57138C14.6845 5.57138 14.4137 5.68447 14.1875 5.91066C13.9673 6.1309 13.8571 6.39876 13.8571 6.71423C13.8571 7.02971 13.9673 7.30054 14.1875 7.52673C14.4137 7.74697 14.6845 7.85709 15 7.85709C15.3155 7.85709 15.5833 7.74697 15.8036 7.52673ZM19 10.7142C19 12.2678 18.5804 13.7053 17.7411 15.0267C17.628 15.1994 17.4673 15.2857 17.2589 15.2857H4.74107C4.53274 15.2857 4.37202 15.1994 4.25893 15.0267C3.41964 13.7113 3 12.2738 3 10.7142C3 9.6309 3.21131 8.59519 3.63393 7.60709C4.05655 6.61899 4.625 5.7678 5.33929 5.05352C6.05357 4.33923 6.90476 3.77078 7.89286 3.34816C8.88095 2.92554 9.91667 2.71423 11 2.71423C12.0833 2.71423 13.119 2.92554 14.1071 3.34816C15.0952 3.77078 15.9464 4.33923 16.6607 5.05352C17.375 5.7678 17.9435 6.61899 18.3661 7.60709C18.7887 8.59519 19 9.6309 19 10.7142Z" fill="#5E84B6"/>
</svg>
