<svg width="200" height="58" viewBox="0 0 200 58" fill="none" xmlns="http://www.w3.org/2000/svg">
<path d="M200 52.2996V57.9248H0V40.631H187.989V44.8879H191.866V48.5747H195.781V52.2996H200Z" fill="#FACC2B"/>
<path d="M8.24781 44.7358C9.23602 44.7358 9.95818 44.8119 10.4523 44.9259C10.9464 45.0399 11.4025 45.268 11.7826 45.534C12.2387 45.8761 12.5808 46.3702 12.8088 46.9403C13.0369 47.5105 13.1509 48.2326 13.1509 49.0308C13.1509 49.867 13.0369 50.5511 12.8088 51.1212C12.5808 51.6914 12.2387 52.1855 11.7826 52.5276C11.4405 52.7936 10.9844 53.0217 10.4903 53.1357C9.99619 53.2497 9.23602 53.3257 8.28581 53.3257H5.16913V44.7358H8.24781ZM8.05776 45.496H5.9673V52.4895H8.24781C9.00797 52.4895 9.5781 52.4515 9.99619 52.3755C10.4143 52.2995 10.7564 52.1475 11.0604 51.9574C11.4785 51.6914 11.7826 51.3113 11.9726 50.8172C12.1627 50.3231 12.2767 49.7149 12.2767 48.9548C12.2767 48.2326 12.1627 47.6245 11.9726 47.1684C11.7826 46.6743 11.4785 46.3322 11.0604 46.0281C10.7564 45.8381 10.4143 45.6861 9.99619 45.61C9.5781 45.534 8.93196 45.496 8.05776 45.496Z" fill="#606161"/>
<path d="M20.7146 51.3114C20.5626 51.9955 20.1825 52.5276 19.6124 52.9457C19.0422 53.3638 18.3961 53.5538 17.5979 53.5538C16.5717 53.5538 15.7735 53.2498 15.1654 52.6416C14.5572 52.0335 14.2532 51.1973 14.2532 50.2091C14.2532 49.2209 14.5572 48.3847 15.1654 47.7766C15.7735 47.1684 16.6097 46.8644 17.5979 46.8644C18.6241 46.8644 19.4223 47.1684 20.0304 47.7766C20.6386 48.3847 20.9426 49.1829 20.9426 50.2091V50.3992H15.1274C15.1654 51.1593 15.3934 51.7675 15.8495 52.1475C16.2676 52.5656 16.8758 52.7557 17.5979 52.7557C18.13 52.7557 18.5861 52.6417 18.9662 52.3756C19.3463 52.1095 19.6124 51.7675 19.7644 51.3114H20.7146ZM15.1654 49.639H20.0304C19.9924 49.0309 19.7264 48.4987 19.3083 48.1187C18.8522 47.7386 18.3201 47.5485 17.6359 47.5485C16.9518 47.5485 16.3816 47.7386 15.9255 48.1187C15.4694 48.4987 15.2034 49.0309 15.1654 49.639Z" fill="#606161"/>
<path d="M23.147 44.7358H22.3109V53.3257H23.147V44.7358Z" fill="#606161"/>
<path d="M25.0095 44.7358H25.8457V45.7241H25.0095V44.7358ZM25.0095 47.0163H25.8457V53.3257H25.0095V47.0163Z" fill="#606161"/>
<path d="M29.4565 53.2877L26.6059 47.0164H27.5561L29.9126 52.4516L32.2691 47.0164H33.1813L30.3307 53.2877H29.4565Z" fill="#606161"/>
<path d="M40.0988 51.3114C39.9468 51.9955 39.5667 52.5276 38.9966 52.9457C38.4264 53.3638 37.7803 53.5538 36.9821 53.5538C35.9559 53.5538 35.1577 53.2498 34.5496 52.6416C33.9415 52.0335 33.6374 51.1973 33.6374 50.2091C33.6374 49.2209 33.9415 48.3847 34.5496 47.7766C35.1577 47.1684 35.9939 46.8644 36.9821 46.8644C38.0084 46.8644 38.8065 47.1684 39.4147 47.7766C40.0228 48.3847 40.3269 49.1829 40.3269 50.2091V50.3992H34.5116C34.5496 51.1593 34.7776 51.7675 35.2337 52.1475C35.6518 52.5656 36.26 52.7557 36.9821 52.7557C37.5142 52.7557 37.9703 52.6417 38.3504 52.3756C38.7305 52.1095 38.9966 51.7675 39.1486 51.3114H40.0988ZM34.5496 49.639H39.4147C39.3767 49.0309 39.1106 48.4987 38.6925 48.1187C38.2364 47.7386 37.7043 47.5485 37.0201 47.5485C36.336 47.5485 35.7659 47.7386 35.3098 48.1187C34.8537 48.4987 34.5876 49.0309 34.5496 49.639Z" fill="#606161"/>
<path d="M42.5313 53.2877H41.6951V46.9783H42.5313V48.0046C42.7214 47.6245 42.9874 47.2824 43.2915 47.0544C43.6336 46.8263 44.0136 46.7123 44.3937 46.7123C44.5458 46.7123 44.6598 46.7123 44.8118 46.7503C44.9639 46.7883 45.0779 46.8263 45.2299 46.8643V47.6625C45.0779 47.6245 44.9638 47.5865 44.8498 47.5865C44.7358 47.5865 44.6218 47.5485 44.5077 47.5485C44.0136 47.5485 43.5955 47.6625 43.2915 47.9285C42.9494 48.1946 42.7214 48.5747 42.5313 49.1068V53.2877Z" fill="#606161"/>
<path d="M46.1422 44.7358H46.9783V45.7241H46.1422V44.7358ZM46.1422 47.0163H46.9783V53.3257H46.1422V47.0163Z" fill="#606161"/>
<path d="M48.7647 53.2878V46.9784H49.5629V48.1567C49.8669 47.7386 50.247 47.3965 50.7031 47.2065C51.1592 46.9784 51.6533 46.8644 52.2235 46.8644C53.0597 46.8644 53.6678 47.0544 54.0479 47.4345C54.428 47.8146 54.618 48.4227 54.618 49.2209V53.2878H53.7818V49.753C53.7818 48.9548 53.6678 48.3847 53.4017 48.0806C53.1357 47.7766 52.6796 47.6245 52.0334 47.6245C51.3113 47.6245 50.7411 47.8146 50.247 48.1947C49.7909 48.5748 49.5629 49.0689 49.5629 49.715V53.2878H48.7647Z" fill="#606161"/>
<path d="M62.5998 52.8316C62.5998 53.4017 62.5618 53.8198 62.4477 54.0859C62.3337 54.352 62.1437 54.618 61.8776 54.8461C61.5735 55.0741 61.2315 55.2642 60.7754 55.3782C60.3573 55.4922 59.8632 55.5682 59.293 55.5682C58.4569 55.5682 57.7727 55.4162 57.2406 55.0741C56.7465 54.732 56.4424 54.2759 56.4044 53.7058H57.2406C57.3166 54.0859 57.5066 54.352 57.8487 54.542C58.1908 54.732 58.6469 54.8081 59.255 54.8081C60.1672 54.8081 60.7754 54.656 61.1935 54.352C61.5735 54.0479 61.7636 53.5538 61.7636 52.8696V52.1855C61.4215 52.6036 61.0414 52.9456 60.6613 53.1357C60.2433 53.3257 59.7871 53.4398 59.255 53.4398C58.2668 53.4398 57.4686 53.1357 56.8605 52.5275C56.2524 51.9194 55.9483 51.1212 55.9483 50.133C55.9483 49.1448 56.2524 48.3466 56.8605 47.7385C57.4686 47.1304 58.2668 46.8263 59.255 46.8263C59.7871 46.8263 60.2433 46.9403 60.6613 47.1304C61.0794 47.3204 61.4595 47.6625 61.7636 48.0806V46.9783H62.5998V52.8316ZM61.7636 50.171C61.7636 49.4109 61.5355 48.8027 61.0794 48.3466C60.6233 47.8905 60.0152 47.6625 59.255 47.6625C58.4949 47.6625 57.8867 47.8905 57.4306 48.3466C56.9745 48.8027 56.7465 49.4109 56.7465 50.171C56.7465 50.9312 56.9745 51.5393 57.4306 51.9954C57.8867 52.4515 58.4949 52.6796 59.255 52.6796C60.0152 52.6796 60.6233 52.4515 61.0794 51.9954C61.5355 51.5393 61.7636 50.9312 61.7636 50.171Z" fill="#606161"/>
<path d="M68.263 44.7358H69.0992V45.7241H68.263V44.7358ZM68.263 47.0163H69.0992V53.3257H68.263V47.0163Z" fill="#606161"/>
<path d="M70.8856 53.2878V46.9784H71.6837V48.1567C71.9878 47.7386 72.3679 47.3965 72.824 47.2065C73.2801 46.9784 73.7742 46.8644 74.3443 46.8644C74.9525 46.8644 75.4466 46.9784 75.8266 47.1684C76.2067 47.3965 76.5108 47.7006 76.6628 48.1567C76.9669 47.7386 77.347 47.3965 77.8031 47.2065C78.2592 46.9784 78.7533 46.8644 79.3234 46.8644C80.1596 46.8644 80.7677 47.0544 81.1478 47.4345C81.5279 47.8146 81.7179 48.4227 81.7179 49.2209V53.2878H80.8818V49.753C80.8818 48.9548 80.7677 48.3847 80.5017 48.0806C80.2356 47.7766 79.7795 47.6245 79.1714 47.6245C78.4492 47.6245 77.8791 47.8146 77.385 48.1947C76.9289 48.5748 76.7008 49.0689 76.7008 49.715V53.2878H75.9407V49.753C75.9407 48.9548 75.8266 48.3847 75.5606 48.0806C75.2945 47.7766 74.8384 47.6245 74.1923 47.6245C73.4701 47.6245 72.9 47.8146 72.4059 48.1947C71.9498 48.5748 71.7217 49.0689 71.7217 49.715V53.2878H70.8856Z" fill="#606161"/>
<path d="M83.4284 55.5683V47.0164H84.2646V48.1187C84.5687 47.7006 84.9487 47.3585 85.3288 47.1684C85.7469 46.9784 86.203 46.8644 86.7351 46.8644C87.7233 46.8644 88.5595 47.1684 89.1677 47.7766C89.7758 48.3847 90.0799 49.1829 90.0799 50.1711C90.0799 51.1593 89.7758 51.9575 89.1677 52.5656C88.5595 53.1738 87.7614 53.4778 86.7731 53.4778C86.241 53.4778 85.7849 53.3638 85.3668 53.1738C84.9487 52.9837 84.6067 52.6797 84.2646 52.2236V55.5683H83.4284ZM84.2266 50.1711C84.2266 50.9313 84.4546 51.5394 84.9107 51.9955C85.3668 52.4516 85.975 52.6797 86.7351 52.6797C87.4953 52.6797 88.1034 52.4516 88.5595 51.9955C89.0156 51.5394 89.2437 50.9313 89.2437 50.1711C89.2437 49.4109 89.0156 48.8028 88.5595 48.3467C88.1034 47.8906 87.4953 47.6626 86.7351 47.6626C85.975 47.6626 85.3668 47.8906 84.9107 48.3467C84.4546 48.7648 84.2266 49.3729 84.2266 50.1711Z" fill="#606161"/>
<path d="M97.8335 52.4896V53.2118C97.7195 53.2498 97.5674 53.2878 97.4534 53.2878C97.3394 53.3258 97.2254 53.3258 97.1113 53.3258C96.8453 53.3258 96.6172 53.2498 96.5032 53.0977C96.3892 52.9457 96.3132 52.6797 96.2751 52.3376C95.9331 52.7177 95.553 53.0217 95.1349 53.1738C94.7168 53.3638 94.1847 53.4398 93.5765 53.4398C92.8164 53.4398 92.2083 53.2878 91.8282 52.9457C91.4101 52.6036 91.22 52.1475 91.22 51.5394C91.22 51.2734 91.258 51.0073 91.3721 50.7792C91.4861 50.5512 91.6381 50.3612 91.8662 50.2091C92.0562 50.0951 92.2843 49.9811 92.5883 49.905C92.8924 49.829 93.3865 49.715 94.1087 49.639C94.2607 49.601 94.4888 49.601 94.7548 49.563C95.781 49.4489 96.2751 49.1449 96.2751 48.6508C96.2751 48.3087 96.1231 48.0426 95.819 47.8526C95.515 47.6626 95.0969 47.5865 94.5268 47.5865C93.8046 47.5865 93.2725 47.7006 92.8924 47.9666C92.5123 48.1947 92.3223 48.5748 92.2843 49.0689H91.4481C91.4861 48.3467 91.7521 47.7766 92.2463 47.3965C92.7404 47.0164 93.4625 46.8644 94.4127 46.8644C95.0209 46.8644 95.477 46.9404 95.8571 47.0544C96.2371 47.1684 96.5032 47.3585 96.7312 47.6245C96.8453 47.7766 96.9593 47.9666 96.9973 48.1947C97.0353 48.4227 97.0733 48.7268 97.0733 49.1829V49.525V51.9575C97.0733 52.2236 97.1113 52.4136 97.1493 52.4896C97.1873 52.5656 97.3014 52.6036 97.4154 52.6036C97.4914 52.6036 97.5294 52.6036 97.6054 52.6036C97.7195 52.5276 97.7955 52.5276 97.8335 52.4896ZM96.3131 49.905C96.1611 49.9811 95.9331 50.0571 95.629 50.1331C95.3249 50.2091 94.8308 50.2851 94.1467 50.3992C93.2345 50.5512 92.6643 50.7032 92.4363 50.8553C92.2082 51.0073 92.0942 51.2733 92.0942 51.5774C92.0942 51.9195 92.2463 52.1856 92.5503 52.3756C92.8544 52.5656 93.2345 52.6797 93.7286 52.6797C94.4888 52.6797 95.1349 52.4896 95.629 52.1475C96.1231 51.7675 96.3512 51.3114 96.3512 50.7412V50.6272V49.905H96.3131Z" fill="#606161"/>
<path d="M104.333 51.0073H105.169C105.093 51.7674 104.751 52.3376 104.181 52.8317C103.611 53.2878 102.927 53.5158 102.09 53.5158C101.102 53.5158 100.266 53.2117 99.6579 52.5656C99.0497 51.9575 98.7457 51.1213 98.7457 50.1331C98.7457 49.1448 99.0497 48.3087 99.6579 47.7005C100.266 47.0924 101.102 46.7883 102.09 46.7883C102.889 46.7883 103.573 47.0164 104.105 47.4345C104.675 47.8526 104.979 48.4227 105.093 49.1068H104.219C104.067 48.6127 103.801 48.2326 103.421 47.9666C103.041 47.7005 102.585 47.5865 102.014 47.5865C101.254 47.5865 100.684 47.8146 100.228 48.3087C99.7719 48.8028 99.5438 49.4109 99.5438 50.1711C99.5438 50.9693 99.7719 51.5774 100.228 52.0335C100.684 52.4896 101.292 52.7176 102.052 52.7176C102.623 52.7176 103.117 52.5656 103.535 52.2615C103.991 51.9575 104.219 51.5394 104.333 51.0073Z" fill="#606161"/>
<path d="M107.564 51.6154C107.564 52.0715 107.602 52.3755 107.716 52.4895C107.83 52.6036 108.02 52.6416 108.324 52.6416C108.4 52.6416 108.514 52.6416 108.628 52.6036C108.742 52.6036 108.856 52.5656 109.008 52.5276V53.2497C108.818 53.2877 108.628 53.3257 108.476 53.3637C108.324 53.4017 108.134 53.4017 107.982 53.4017C107.526 53.4017 107.222 53.2877 107.032 53.0217C106.842 52.7556 106.766 52.3375 106.766 51.7294V47.7005H105.663V47.0163H106.727V45.1539H107.564V47.0163H109.008V47.7005H107.564V51.6154Z" fill="#606161"/>
<path d="M113.227 51.3112H114.063C114.139 51.7673 114.329 52.1474 114.709 52.3755C115.089 52.6035 115.583 52.7176 116.268 52.7176C116.99 52.7176 117.522 52.6035 117.864 52.4135C118.244 52.2234 118.434 51.9194 118.434 51.5393C118.434 51.2732 118.358 51.0832 118.168 50.9312C117.978 50.7791 117.674 50.6651 117.256 50.6271L115.431 50.361C114.709 50.247 114.215 50.057 113.873 49.7909C113.569 49.5249 113.417 49.1448 113.417 48.6127C113.417 48.0425 113.683 47.5864 114.177 47.2444C114.671 46.9023 115.355 46.7502 116.23 46.7502C117.104 46.7502 117.788 46.9403 118.282 47.2824C118.776 47.6624 119.042 48.1566 119.042 48.7647H118.206C118.13 48.3466 117.94 48.0045 117.598 47.8145C117.256 47.5864 116.724 47.5104 116.077 47.5104C115.507 47.5104 115.051 47.5864 114.747 47.7765C114.443 47.9665 114.253 48.2326 114.253 48.5366C114.253 48.8027 114.367 49.0307 114.557 49.1448C114.747 49.2968 115.127 49.4108 115.697 49.4868L117.332 49.7529C118.016 49.8669 118.51 50.057 118.852 50.323C119.156 50.5891 119.308 50.9692 119.308 51.4633C119.308 52.1094 119.042 52.6415 118.51 52.9836C117.978 53.3257 117.218 53.5157 116.192 53.5157C115.317 53.5157 114.595 53.3257 114.101 52.9456C113.569 52.5655 113.303 52.0334 113.227 51.3112Z" fill="#606161"/>
<path d="M126.34 47.0164V53.3257H125.542V52.1475C125.238 52.5656 124.857 52.9077 124.401 53.0977C123.945 53.3257 123.451 53.4398 122.881 53.4398C122.045 53.4398 121.437 53.2497 121.057 52.8696C120.677 52.4896 120.487 51.8814 120.487 51.0833V47.0164H121.323V50.5511C121.323 51.3493 121.437 51.9194 121.703 52.2235C121.969 52.5276 122.425 52.6796 123.071 52.6796C123.793 52.6796 124.363 52.4896 124.857 52.1095C125.314 51.7294 125.542 51.1973 125.542 50.5891V47.0164H126.34Z" fill="#606161"/>
<path d="M127.556 51.3112H128.392C128.468 51.7673 128.658 52.1474 129.038 52.3755C129.418 52.6035 129.913 52.7176 130.597 52.7176C131.319 52.7176 131.851 52.6035 132.193 52.4135C132.573 52.2234 132.763 51.9194 132.763 51.5393C132.763 51.2732 132.687 51.0832 132.497 50.9312C132.307 50.7791 132.003 50.6651 131.585 50.6271L129.761 50.361C129.038 50.247 128.544 50.057 128.202 49.7909C127.898 49.5249 127.746 49.1448 127.746 48.6127C127.746 48.0425 128.012 47.5864 128.506 47.2444C129 46.9023 129.685 46.7502 130.559 46.7502C131.433 46.7502 132.117 46.9403 132.611 47.2824C133.105 47.6624 133.371 48.1566 133.371 48.7647H132.535C132.459 48.3466 132.269 48.0045 131.927 47.8145C131.585 47.5864 131.053 47.5104 130.407 47.5104C129.837 47.5104 129.38 47.5864 129.076 47.7765C128.772 47.9665 128.582 48.2326 128.582 48.5366C128.582 48.8027 128.696 49.0307 128.886 49.1448C129.076 49.2968 129.457 49.4108 130.027 49.4868L131.661 49.7529C132.345 49.8669 132.839 50.057 133.181 50.323C133.485 50.5891 133.637 50.9692 133.637 51.4633C133.637 52.1094 133.371 52.6415 132.839 52.9836C132.307 53.3257 131.547 53.5157 130.521 53.5157C129.647 53.5157 128.924 53.3257 128.43 52.9456C127.86 52.5655 127.594 52.0334 127.556 51.3112Z" fill="#606161"/>
<path d="M135.994 51.6154C135.994 52.0715 136.032 52.3755 136.146 52.4895C136.26 52.6036 136.45 52.6416 136.754 52.6416C136.83 52.6416 136.944 52.6416 137.058 52.6036C137.172 52.6036 137.286 52.5656 137.438 52.5276V53.2497C137.248 53.2877 137.058 53.3257 136.906 53.3637C136.754 53.4017 136.564 53.4017 136.412 53.4017C135.956 53.4017 135.652 53.2877 135.462 53.0217C135.272 52.7556 135.196 52.3375 135.196 51.7294V47.7005H134.132V47.0163H135.196V45.1539H136.032V47.0163H137.476V47.7005H136.032V51.6154H135.994Z" fill="#606161"/>
<path d="M144.774 52.4896V53.2118C144.66 53.2498 144.508 53.2878 144.394 53.2878C144.28 53.3258 144.166 53.3258 144.052 53.3258C143.786 53.3258 143.558 53.2498 143.444 53.0977C143.33 52.9457 143.254 52.6797 143.216 52.3376C142.873 52.7177 142.493 53.0217 142.075 53.1738C141.657 53.3638 141.125 53.4398 140.517 53.4398C139.757 53.4398 139.187 53.2878 138.769 52.9457C138.35 52.6036 138.16 52.1475 138.16 51.5394C138.16 51.2734 138.198 51.0073 138.312 50.7792C138.426 50.5512 138.578 50.3612 138.807 50.2091C138.997 50.0951 139.225 49.9811 139.529 49.905C139.833 49.829 140.327 49.715 141.049 49.639C141.201 49.601 141.429 49.601 141.695 49.563C142.721 49.4489 143.216 49.1449 143.216 48.6508C143.216 48.3087 143.063 48.0426 142.759 47.8526C142.455 47.6626 142.037 47.5865 141.467 47.5865C140.745 47.5865 140.213 47.7006 139.833 47.9666C139.453 48.1947 139.263 48.5748 139.225 49.0689H138.388C138.426 48.3467 138.693 47.7766 139.187 47.3965C139.681 47.0164 140.403 46.8644 141.353 46.8644C141.961 46.8644 142.417 46.9404 142.797 47.0544C143.178 47.1684 143.444 47.3585 143.672 47.6245C143.786 47.7766 143.9 47.9666 143.938 48.1947C143.976 48.4227 144.014 48.7268 144.014 49.1829V49.525V51.9575C144.014 52.2236 144.052 52.4136 144.09 52.4896C144.128 52.5656 144.242 52.6036 144.356 52.6036C144.432 52.6036 144.47 52.6036 144.546 52.6036C144.66 52.5276 144.736 52.5276 144.774 52.4896ZM143.254 49.905C143.101 49.9811 142.873 50.0571 142.569 50.1331C142.265 50.2091 141.771 50.2851 141.087 50.3992C140.175 50.5512 139.605 50.7032 139.377 50.8553C139.149 51.0073 139.035 51.2733 139.035 51.5774C139.035 51.9195 139.187 52.1856 139.491 52.3756C139.795 52.5656 140.175 52.6797 140.669 52.6797C141.429 52.6797 142.075 52.4896 142.569 52.1475C143.063 51.7675 143.292 51.3114 143.292 50.7412V50.6272V49.905H143.254Z" fill="#606161"/>
<path d="M146.104 44.7358H146.94V45.7241H146.104V44.7358ZM146.104 47.0163H146.94V53.3257H146.104V47.0163Z" fill="#606161"/>
<path d="M148.727 53.2878V46.9784H149.525V48.1567C149.829 47.7386 150.209 47.3965 150.665 47.2065C151.121 46.9784 151.615 46.8644 152.186 46.8644C153.022 46.8644 153.63 47.0544 154.01 47.4345C154.39 47.8146 154.58 48.4227 154.58 49.2209V53.2878H153.744V49.753C153.744 48.9548 153.63 48.3847 153.364 48.0806C153.098 47.7766 152.642 47.6245 151.995 47.6245C151.273 47.6245 150.703 47.8146 150.209 48.1947C149.753 48.5748 149.525 49.0689 149.525 49.715V53.2878H148.727Z" fill="#606161"/>
<path d="M162.714 52.4896V53.2118C162.6 53.2498 162.448 53.2878 162.334 53.2878C162.22 53.3258 162.106 53.3258 161.992 53.3258C161.726 53.3258 161.498 53.2498 161.384 53.0977C161.269 52.9457 161.193 52.6797 161.155 52.3376C160.813 52.7177 160.433 53.0217 160.015 53.1738C159.597 53.3638 159.065 53.4398 158.457 53.4398C157.697 53.4398 157.089 53.2878 156.708 52.9457C156.29 52.6036 156.1 52.1475 156.1 51.5394C156.1 51.2734 156.138 51.0073 156.252 50.7792C156.366 50.5512 156.518 50.3612 156.746 50.2091C156.937 50.0951 157.165 49.9811 157.469 49.905C157.773 49.829 158.267 49.715 158.989 49.639C159.141 49.601 159.369 49.601 159.635 49.563C160.661 49.4489 161.155 49.1449 161.155 48.6508C161.155 48.3087 161.003 48.0426 160.699 47.8526C160.395 47.6626 159.977 47.5865 159.407 47.5865C158.685 47.5865 158.153 47.7006 157.773 47.9666C157.393 48.1947 157.203 48.5748 157.165 49.0689H156.328C156.366 48.3467 156.632 47.7766 157.127 47.3965C157.621 47.0164 158.343 46.8644 159.293 46.8644C159.901 46.8644 160.357 46.9404 160.737 47.0544C161.117 47.1684 161.384 47.3585 161.612 47.6245C161.726 47.7766 161.84 47.9666 161.878 48.1947C161.916 48.4227 161.954 48.7268 161.954 49.1829V49.525V51.9575C161.954 52.2236 161.992 52.4136 162.03 52.4896C162.068 52.5656 162.182 52.6036 162.296 52.6036C162.372 52.6036 162.41 52.6036 162.486 52.6036C162.6 52.5276 162.676 52.5276 162.714 52.4896ZM161.193 49.905C161.041 49.9811 160.813 50.0571 160.509 50.1331C160.205 50.2091 159.711 50.2851 159.027 50.3992C158.115 50.5512 157.545 50.7032 157.317 50.8553C157.089 51.0073 156.975 51.2733 156.975 51.5774C156.975 51.9195 157.127 52.1856 157.431 52.3756C157.735 52.5656 158.115 52.6797 158.609 52.6797C159.369 52.6797 160.015 52.4896 160.509 52.1475C161.003 51.7675 161.231 51.3114 161.231 50.7412V50.6272V49.905H161.193Z" fill="#606161"/>
<path d="M164.006 53.2878V44.6979H164.842V48.0426C165.184 47.6245 165.526 47.3205 165.945 47.0924C166.363 46.9024 166.819 46.7883 167.351 46.7883C168.339 46.7883 169.137 47.0924 169.783 47.7005C170.392 48.3087 170.696 49.1068 170.696 50.0951C170.696 51.0833 170.392 51.8815 169.783 52.4896C169.175 53.0977 168.377 53.4018 167.351 53.4018C166.819 53.4018 166.325 53.2878 165.907 53.0977C165.488 52.9077 165.146 52.5656 164.842 52.1475V53.2498H164.006V53.2878ZM164.842 50.1331C164.842 50.8932 165.07 51.5014 165.526 51.9575C165.983 52.4136 166.591 52.6416 167.351 52.6416C168.111 52.6416 168.719 52.4136 169.175 51.9575C169.631 51.5014 169.859 50.8932 169.859 50.1331C169.859 49.3729 169.631 48.7648 169.175 48.3087C168.719 47.8526 168.111 47.6245 167.351 47.6245C166.591 47.6245 165.983 47.8526 165.526 48.3087C165.07 48.7648 164.842 49.3729 164.842 50.1331Z" fill="#606161"/>
<path d="M172.9 44.7358H172.064V53.3257H172.9V44.7358Z" fill="#606161"/>
<path d="M177.005 54.0479C176.701 54.694 176.435 55.0741 176.131 55.2641C175.827 55.4542 175.447 55.5302 174.952 55.5302C174.838 55.5302 174.762 55.5302 174.648 55.4922C174.534 55.4542 174.42 55.4542 174.268 55.4162V54.618C174.458 54.656 174.61 54.694 174.724 54.694C174.876 54.694 174.991 54.732 175.067 54.732C175.371 54.732 175.637 54.618 175.865 54.428C176.055 54.2379 176.321 53.8198 176.549 53.2117L173.66 46.9403H174.61L176.967 52.3755L179.323 46.9403H180.236L177.005 54.0479Z" fill="#606161"/>
<path d="M187.951 52.1854H185.443V54.694H187.951V52.1854Z" fill="white"/>
<path d="M191.486 48.8027H188.293V51.9954H191.486V48.8027Z" fill="white"/>
<path d="M192.246 40.631H188.56V44.3178H192.246V40.631Z" fill="#FACC2B"/>
<path d="M196.123 44.3557H192.436V48.0425H196.123V44.3557Z" fill="#FACC2B"/>
<path d="M200 40.631H196.313V44.3178H200V40.631Z" fill="#FACC2B"/>
<path d="M200 48.0426H196.313V51.7294H200V48.0426Z" fill="#FACC2B"/>
<path d="M16.6097 0.836182V3.1927H4.02889V12.7708H16.0015V15.1273H4.02889V27.6701H1.40631V0.836182H16.6097Z" fill="#5F6060"/>
<path d="M23.9073 3.72482H20.9807V0.836182H23.9073V3.72482ZM23.6032 27.6701H21.2847V9.00798H23.6032V27.6701Z" fill="#5F6060"/>
<path d="M29.7226 9.00793L36.108 24.1733L41.9233 9.00793H44.5459L37.2483 27.67H34.6257L27.062 9.00793H29.7226Z" fill="#5F6060"/>
<path d="M60.8894 21.2467H63.512C62.9039 23.7552 61.9157 25.4656 60.5093 26.4538C59.103 27.442 57.3547 27.9361 55.3402 27.9361C52.3375 27.9361 50.1711 27.062 48.8788 25.3136C47.5865 23.5652 46.8643 21.6268 46.6743 19.4983C46.6363 19.2702 46.6363 19.0042 46.6363 18.7761C46.6363 18.5481 46.6363 18.282 46.6363 18.054C46.6363 15.1273 47.5105 12.7708 49.2209 10.9084C50.9312 9.04599 52.9077 8.13379 55.1122 8.13379C58.0388 8.13379 60.1293 9.084 61.4596 10.9844C62.7898 12.8848 63.474 14.9753 63.588 17.2938V17.5599V17.7879V18.016V18.206C63.55 18.282 63.55 18.358 63.55 18.4341V18.6621L49.2209 18.6241C49.2209 19.0042 49.2589 19.4223 49.2969 19.8404C49.3729 20.2585 49.4489 20.6765 49.5629 21.1326C49.867 22.3489 50.4751 23.4512 51.3493 24.4394C52.2235 25.4276 53.4018 25.9217 54.9221 25.9217H55.0361H55.1502H55.2262H55.3022C56.7085 25.8077 57.7727 25.5036 58.5329 24.9715C59.2931 24.4394 59.8252 23.8312 60.1673 23.2231C60.3573 22.843 60.5093 22.5009 60.6234 22.1589C60.7754 21.8548 60.8514 21.5887 60.8894 21.2467ZM60.8894 16.4956C60.8894 16.4576 60.8894 16.4196 60.9274 16.3816V16.2676V16.1536C60.9274 14.5572 60.4713 13.3029 59.5591 12.3907C58.6469 11.4785 57.6207 10.9084 56.5185 10.6803C56.3284 10.6423 56.1384 10.6043 55.9103 10.5663C55.7203 10.5283 55.5302 10.5283 55.3022 10.5283C54.9221 10.5283 54.504 10.5663 54.0479 10.6043C53.5918 10.6803 53.0977 10.8324 52.6036 11.0604C51.9195 11.3645 51.2733 11.9726 50.6652 12.8088C50.019 13.645 49.5629 14.9373 49.2209 16.6477L60.8894 16.6097V16.4956Z" fill="#5F6060"/>
<g opacity="0.2">
<path d="M71.6458 25.1995C72.634 26.2637 74.0023 26.7579 75.7507 26.7579C78.2972 26.7579 80.1216 26.2637 81.2239 25.2375C82.3261 24.2113 82.8962 23.071 82.8962 21.8548C82.8962 20.8666 82.5922 19.9163 82.022 19.0422C81.4139 18.168 80.6157 17.5218 79.5895 17.1417C79.2854 17.0277 78.9434 16.9137 78.6013 16.7997C78.2592 16.6856 77.9551 16.6096 77.6131 16.4956C77.385 16.4196 77.195 16.3436 76.9669 16.3056C76.7769 16.2295 76.5488 16.1915 76.3208 16.1155C74.2303 15.4314 72.2919 14.5572 70.5055 13.4549C68.7571 12.3527 67.8449 10.4903 67.8449 7.79168C67.8449 6.04329 68.6051 4.44694 70.1634 2.96462C71.7218 1.5203 73.6602 0.760132 75.9787 0.760132C78.4873 0.760132 80.5777 1.33026 82.2881 2.4325C83.9985 3.53474 84.9107 5.13109 85.0247 7.18355L82.4401 7.14554C82.4401 6.15732 81.87 5.24512 80.7678 4.37093C79.6275 3.53474 78.0692 3.07864 76.0167 3.07864C74.3443 3.19267 73.0521 3.72478 72.1019 4.67499C71.1516 5.6252 70.6575 6.68944 70.6575 7.8677C70.6575 8.66587 70.8856 9.42604 71.3797 10.1862C71.8738 10.9464 72.634 11.5925 73.6982 12.1246C74.1543 12.3527 74.6484 12.5427 75.1425 12.7708C75.6366 12.9608 76.0927 13.1509 76.5868 13.3409C76.8909 13.4549 77.233 13.5689 77.5371 13.683C77.8411 13.797 78.1452 13.911 78.4493 13.987C80.3877 14.6712 82.06 15.4694 83.5044 16.3816C84.9487 17.2938 85.6708 18.8901 85.6708 21.1706C85.6708 24.2493 84.6446 26.3018 82.5922 27.404C80.5397 28.5062 78.2592 29.0384 75.7507 29.0384C73.4322 29.0384 71.5317 28.4302 70.0114 27.1759C68.4911 25.9597 67.6169 23.9452 67.3128 21.1706L69.9354 21.1326C70.0874 22.805 70.6575 24.1353 71.6458 25.1995Z" fill="#5F6060"/>
<path d="M109.92 1.6344C114.443 1.67241 117.674 3.07872 119.574 5.92934C121.475 8.77997 122.463 12.0107 122.463 15.6595C122.349 19.7264 121.133 22.8811 118.852 25.1236C116.572 27.3281 113.607 28.4683 109.958 28.4683H101.216V1.6344H109.92ZM103.763 26.1498H109.92C112.619 26.1878 114.937 25.2756 116.914 23.4892C118.89 21.7028 119.84 18.9282 119.84 15.2034V14.8233V14.5192C119.84 11.1745 118.852 8.58993 116.838 6.76553C114.823 4.94113 111.935 4.02893 108.172 4.02893L103.763 3.99092V26.1498Z" fill="#5F6060"/>
<path d="M130.065 4.52303H127.138V1.6344H130.065V4.52303ZM129.761 28.4683H127.442V9.8062H129.761V28.4683Z" fill="#5F6060"/>
<path d="M148.689 9.80613H151.007C151.007 10.1102 151.007 10.4903 150.969 10.9464C150.931 11.4025 150.893 11.8966 150.855 12.3907V12.5047V12.5807C150.817 13.1129 150.817 13.607 150.779 14.0631C150.741 14.5192 150.741 14.8612 150.741 15.0893V27.0239C150.741 29.2284 150.247 31.2048 149.297 32.9152C148.347 34.6636 146.104 35.6138 142.607 35.7658C140.403 35.7658 138.617 35.3097 137.286 34.3595C135.956 33.4473 135.31 32.2691 135.272 30.9008V30.8248C135.272 30.7867 135.272 30.7487 135.31 30.7487V30.6347V30.5207H137.628C137.78 31.6989 138.312 32.4971 139.225 32.9912C140.137 33.4853 141.277 33.7134 142.569 33.7134C144.014 33.7134 145.192 33.4093 146.028 32.7632C146.864 32.117 147.472 31.3949 147.853 30.5967C148.043 30.2166 148.195 29.8365 148.271 29.4565C148.347 29.0764 148.385 28.7343 148.385 28.4682V25.2375C147.662 26.3018 146.826 27.0999 145.876 27.6321C144.926 28.1642 143.71 28.4302 142.265 28.4302C139.643 28.4302 137.666 27.48 136.336 25.6176C135.006 23.7552 134.246 21.5887 134.094 19.1182V18.7001C134.094 18.5481 134.094 18.434 134.132 18.282C134.246 16.0775 134.854 14.0631 136.032 12.2007C137.21 10.3382 139.263 9.35003 142.303 9.198C143.596 9.198 144.736 9.42605 145.686 9.92016C146.636 10.4143 147.548 11.2504 148.423 12.3907C148.461 11.4405 148.537 10.5663 148.689 9.80613ZM148.385 18.5481C148.385 16.5336 147.815 14.8232 146.674 13.4169C145.534 12.0106 144.166 11.2885 142.569 11.2885C140.973 11.2885 139.719 11.8586 138.807 12.9608C137.894 14.1011 137.286 15.3173 136.982 16.6856C136.868 17.0657 136.83 17.4078 136.792 17.7879C136.754 18.168 136.754 18.51 136.754 18.8521C136.754 20.7525 137.324 22.5009 138.426 24.0593C139.567 25.6556 140.859 26.4158 142.303 26.4158C143.976 26.4158 145.382 25.7696 146.598 24.5154C147.815 23.2611 148.423 21.4747 148.461 19.2322V19.0802V18.9281C148.423 18.8901 148.423 18.8141 148.423 18.7761V18.5481H148.385Z" fill="#5F6060"/>
<path d="M158.609 4.52303H155.682V1.6344H158.609V4.52303ZM158.305 28.4683H155.986V9.8062H158.305V28.4683Z" fill="#5F6060"/>
<path d="M161.802 9.80621H165.564V6.04338L167.883 5.16919V9.84422H172.254V11.8967H167.883V24.1734C167.883 25.3516 168.111 26.1118 168.567 26.5299C169.023 26.948 169.631 27.138 170.353 27.138C170.696 27.138 171.038 27.1 171.418 27.062C171.76 27.024 172.14 26.948 172.558 26.834V28.8484C172.102 28.9624 171.646 29.0764 171.19 29.1145C170.734 29.1905 170.315 29.1905 169.935 29.1905C168.491 29.1905 167.389 28.8104 166.667 28.0882C165.944 27.3661 165.564 26.3398 165.564 25.0856V11.8207H161.802V9.80621Z" fill="#5F6060"/>
<path d="M177.879 10.6044C179.247 9.80621 180.768 9.35011 182.44 9.27409C182.554 9.23608 182.63 9.23608 182.744 9.23608H183.086C184.835 9.23608 186.355 9.69218 187.609 10.6044C188.864 11.5166 189.51 13.189 189.51 15.6975C189.51 20.0305 189.51 22.9571 189.51 24.4394C189.51 25.9218 189.586 27.1 189.7 27.9742C189.7 28.0882 189.7 28.1642 189.7 28.2403C189.7 28.3163 189.738 28.3923 189.738 28.4683H187.419C187.381 28.4303 187.381 28.4303 187.381 28.3923C187.267 27.8602 187.153 27.1 187.115 26.1878C186.773 26.7959 186.279 27.3281 185.671 27.7081C185.063 28.1262 184.417 28.4303 183.77 28.6203C183.314 28.7724 182.896 28.8864 182.44 28.9624C182.022 29.0384 181.604 29.0764 181.262 29.0764C179.057 29.0764 177.423 28.4683 176.397 27.252C175.333 26.0358 174.838 24.7055 174.838 23.2612C174.99 20.6386 176.055 18.9662 178.031 18.2441C180.008 17.5219 183.048 17.1418 187.115 17.1418C187.115 15.6975 186.925 14.3292 186.507 13.1129C186.089 11.8967 184.949 11.2885 183.048 11.2885C181.604 11.2885 180.464 11.5546 179.627 12.1247C178.791 12.6948 178.373 13.493 178.373 14.4812L175.751 14.4432C175.789 12.7329 176.511 11.4406 177.879 10.6044ZM187.191 19.1183C187.077 19.1563 186.925 19.1563 186.811 19.1563H186.431C184.227 19.1563 182.174 19.3463 180.35 19.7644C178.525 20.1445 177.575 21.3227 177.575 23.2612C177.575 24.5535 177.993 25.5037 178.829 26.1118C179.666 26.7199 180.616 27.024 181.68 27.024C181.794 27.024 181.908 27.024 182.022 26.986C182.136 26.986 182.25 26.986 182.326 26.986C182.858 26.948 183.352 26.7959 183.808 26.6059C184.303 26.4159 184.721 26.1498 185.139 25.8837C185.785 25.3896 186.279 24.7055 186.659 23.8313C187.039 22.9571 187.229 21.8549 187.267 20.4866C187.267 20.2965 187.267 20.0685 187.267 19.8404C187.229 19.6504 187.191 19.4223 187.191 19.1183Z" fill="#5F6060"/>
<path d="M197.073 1.6344H194.755V28.4683H197.073V1.6344Z" fill="#5F6060"/>
</g>
<path d="M71.6458 24.4014C72.634 25.4656 74.0023 25.9597 75.7507 25.9597C78.2973 25.9597 80.1217 25.4656 81.2239 24.4394C82.3261 23.4132 82.8963 22.2729 82.8963 21.0566C82.8963 20.0684 82.5922 19.1182 82.0221 18.244C81.4139 17.3698 80.6158 16.7237 79.5895 16.3436C79.2855 16.2296 78.9434 16.1155 78.6013 16.0015C78.2592 15.8875 77.9552 15.8115 77.6131 15.6975C77.3851 15.6214 77.195 15.5454 76.967 15.5074C76.7769 15.4314 76.5489 15.3934 76.3208 15.3174C74.2304 14.6332 72.2919 13.759 70.5055 12.6568C68.7572 11.5545 67.845 9.69213 67.845 6.99354C67.845 5.24515 68.6051 3.6488 70.1635 2.16648C71.7978 0.722159 73.7363 0 76.0548 0C78.5633 0 80.6538 0.570125 82.3641 1.67237C84.0745 2.77461 84.9867 4.37096 85.1007 6.42341L82.5162 6.3854C82.5162 5.39719 81.9461 4.48499 80.8438 3.61079C79.7036 2.77461 78.1452 2.31851 76.0928 2.31851C74.4204 2.43254 73.1281 2.96465 72.1779 3.91486C71.2277 4.86507 70.7336 5.9293 70.7336 7.10756C70.7336 7.90574 70.9616 8.66591 71.4557 9.42607C71.9499 10.1862 72.71 10.8324 73.7743 11.3645C74.2304 11.5926 74.7245 11.7826 75.2186 12.0106C75.7127 12.2007 76.1688 12.3907 76.6629 12.5808C76.967 12.6948 77.309 12.8088 77.6131 12.9228C77.9172 13.0369 78.2212 13.1509 78.5253 13.2269C80.4637 13.9111 82.1361 14.6712 83.5804 15.6214C85.0247 16.5336 85.7469 18.13 85.7469 20.4105C85.7469 23.4892 84.7207 25.5416 82.6682 26.6439C80.6158 27.7461 78.3353 28.2782 75.8267 28.2782C73.5082 28.2782 71.6078 27.6701 70.0874 26.4158C68.5671 25.1995 67.6929 23.1851 67.3889 20.4105L70.0114 20.3725C70.0874 22.0068 70.6576 23.3371 71.6458 24.4014Z" fill="#FACC2B"/>
<path d="M109.92 0.836182C114.443 0.87419 117.674 2.2805 119.574 5.13113C121.475 7.98175 122.463 11.2125 122.463 14.8613C122.349 18.9282 121.133 22.0829 118.852 24.2873C116.572 26.4918 113.607 27.6321 109.958 27.6321H101.216V0.836182H109.92ZM103.763 25.3516H109.92C112.619 25.3896 114.937 24.4774 116.914 22.691C118.89 20.9046 119.84 18.13 119.84 14.4052V14.0631V13.759C119.84 10.4143 118.852 7.82972 116.838 6.00532C114.823 4.18092 111.935 3.26872 108.172 3.26872L103.763 3.1927V25.3516Z" fill="#FACC2B"/>
<path d="M130.065 3.72482H127.138V0.836182H130.065V3.72482ZM129.761 27.6701H127.442V9.00798H129.761V27.6701Z" fill="#FACC2B"/>
<path d="M148.689 9.00791H151.007C151.007 9.31198 151.007 9.69206 150.969 10.1482C150.931 10.6043 150.893 11.0984 150.855 11.5925V11.7065V11.7825C150.817 12.3146 150.817 12.8088 150.779 13.2649C150.741 13.721 150.741 14.063 150.741 14.2911V26.2257C150.741 28.4302 150.247 30.4066 149.297 32.117C148.347 33.8654 146.104 34.8156 142.607 34.9676C140.403 34.9676 138.617 34.5115 137.286 33.5613C135.956 32.6491 135.31 31.4709 135.272 30.1026V30.0265C135.272 29.9885 135.272 29.9505 135.31 29.9505V29.8365V29.7225H137.628C137.78 30.9007 138.312 31.6989 139.225 32.193C140.137 32.6871 141.277 32.9152 142.569 32.9152C144.014 32.9152 145.192 32.6111 146.028 31.965C146.864 31.3188 147.472 30.5967 147.853 29.7985C148.043 29.4184 148.195 29.0383 148.271 28.6582C148.347 28.2782 148.385 27.9361 148.385 27.67V24.4393C147.662 25.5035 146.826 26.3017 145.876 26.8338C144.926 27.366 143.71 27.632 142.265 27.632C139.643 27.632 137.666 26.6818 136.336 24.8194C135.006 22.957 134.246 20.7905 134.094 18.32V17.9019C134.094 17.7498 134.094 17.6358 134.132 17.4838C134.246 15.2793 134.854 13.2649 136.032 11.4024C137.21 9.54003 139.263 8.55181 142.303 8.39978C143.596 8.39978 144.736 8.62783 145.686 9.12194C146.636 9.61605 147.548 10.4522 148.423 11.5925C148.461 10.6423 148.537 9.76808 148.689 9.00791ZM148.385 17.7498C148.385 15.7354 147.815 14.025 146.674 12.6187C145.534 11.2124 144.166 10.4902 142.569 10.4902C140.973 10.4902 139.719 11.0604 138.807 12.1626C137.894 13.3029 137.286 14.5191 136.982 15.8874C136.868 16.2675 136.83 16.6096 136.792 16.9897C136.754 17.3698 136.754 17.7118 136.754 18.0539C136.754 19.9543 137.324 21.7027 138.426 23.261C139.567 24.8574 140.821 25.6176 142.303 25.6176C143.976 25.6176 145.382 24.9714 146.598 23.7172C147.815 22.4629 148.423 20.6765 148.461 18.434V18.282V18.1299C148.423 18.0919 148.423 18.0159 148.423 17.9779V17.7498H148.385Z" fill="#FACC2B"/>
<path d="M158.609 3.72482H155.682V0.836182H158.609V3.72482ZM158.305 27.6701H155.986V9.00798H158.305V27.6701Z" fill="#FACC2B"/>
<path d="M161.802 9.00799H165.564V5.24516L167.883 4.37097V9.046H172.254V11.0224H167.883V23.2991C167.883 24.4774 168.111 25.2376 168.567 25.6557C169.023 26.0737 169.631 26.2638 170.353 26.2638C170.696 26.2638 171.038 26.2258 171.418 26.1878C171.76 26.1498 172.14 26.0737 172.558 25.9597V27.9742C172.102 28.0882 171.646 28.2022 171.19 28.2402C170.734 28.3162 170.315 28.3162 169.935 28.3162C168.491 28.3162 167.389 27.9362 166.667 27.214C165.944 26.4918 165.564 25.4656 165.564 24.2113V11.0224H161.802V9.00799Z" fill="#FACC2B"/>
<path d="M177.879 9.80617C179.247 9.00799 180.768 8.55189 182.44 8.47587C182.554 8.43787 182.63 8.43787 182.744 8.43787H183.086C184.835 8.43787 186.355 8.89397 187.609 9.80617C188.864 10.7184 189.51 12.3907 189.51 14.8993C189.51 19.2322 189.51 22.1589 189.51 23.6032C189.51 25.0855 189.586 26.2638 189.7 27.138C189.7 27.252 189.7 27.328 189.7 27.404C189.7 27.4801 189.738 27.5561 189.738 27.6321H187.419C187.381 27.5941 187.381 27.5941 187.381 27.5561C187.267 27.024 187.153 26.2638 187.115 25.3516C186.773 25.9597 186.279 26.4918 185.671 26.8719C185.063 27.29 184.417 27.5941 183.77 27.7841C183.314 27.9362 182.896 28.0502 182.44 28.1262C182.022 28.2022 181.604 28.2402 181.262 28.2402C179.057 28.2402 177.423 27.6321 176.397 26.4158C175.333 25.1996 174.838 23.8693 174.838 22.4249C174.99 19.8024 176.055 18.13 178.031 17.4078C180.008 16.6857 183.048 16.3056 187.115 16.3056C187.115 14.8613 186.925 13.493 186.507 12.2767C186.089 11.0604 184.949 10.4523 183.048 10.4523C181.604 10.4523 180.464 10.7184 179.627 11.2885C178.791 11.8586 178.373 12.6568 178.373 13.645L175.751 13.607C175.789 11.8966 176.511 10.6424 177.879 9.80617ZM187.191 18.32C187.077 18.358 186.925 18.358 186.811 18.358H186.431C184.227 18.358 182.174 18.5481 180.35 18.9662C178.525 19.3463 177.575 20.5245 177.575 22.4629C177.575 23.7552 177.993 24.7054 178.829 25.3136C179.666 25.9217 180.616 26.2258 181.68 26.2258C181.794 26.2258 181.908 26.2258 182.022 26.2258C182.136 26.2258 182.25 26.2258 182.326 26.2258C182.858 26.1878 183.352 26.0357 183.808 25.8457C184.303 25.6557 184.721 25.3896 185.139 25.1235C185.785 24.6294 186.279 23.9453 186.659 23.0711C187.039 22.1969 187.229 21.0947 187.267 19.7263C187.267 19.5363 187.267 19.3083 187.267 19.0802C187.229 18.8522 187.191 18.6241 187.191 18.32Z" fill="#FACC2B"/>
<path d="M197.073 0.836182H194.755V27.6701H197.073V0.836182Z" fill="#FACC2B"/>
</svg>
