<svg width="25" height="20" viewBox="0 0 25 20" fill="none" xmlns="http://www.w3.org/2000/svg">
<path d="M14.9736 9.34336C15.0043 9.08105 15.035 8.78887 15.035 8.5C15.035 8.21113 15.0043 7.94551 14.9736 7.65664L16.8315 6.25879C17.0125 6.14258 17.0398 5.91016 16.951 5.7043L15.2161 2.76582C15.0965 2.58984 14.8882 2.50352 14.6764 2.58984L12.4907 3.4332C12.0399 3.08457 11.531 2.82227 11.0221 2.58984L10.6943 0.348633C10.6601 0.146094 10.4825 0 10.2708 0H6.73941C6.53108 0 6.35007 0.146094 6.31934 0.348633L5.99147 2.58984C5.45186 2.79238 4.97373 3.08457 4.52292 3.4332L2.33716 2.58984C2.12883 2.50352 1.91708 2.58984 1.79755 2.76582L0.0626051 5.7043C-0.0569285 5.88027 0.0011307 6.1127 0.182139 6.25879L2.04003 7.65664C2.0093 7.91895 1.97856 8.21113 1.97856 8.5C1.97856 8.78887 2.0093 9.05449 2.04003 9.34336L0.182139 10.7412C0.0011307 10.8574 -0.0296065 11.0898 0.0626051 11.2957L1.79755 14.2342C1.88635 14.4102 2.12541 14.4965 2.33716 14.4102L4.52292 13.5668C4.97373 13.9154 5.4826 14.1777 5.99147 14.4102L6.31934 16.6514C6.35007 16.8539 6.52767 17 6.73941 17H10.24C10.4484 17 10.6294 16.8539 10.6601 16.6514L10.9914 14.4102C11.531 14.2076 12.0091 13.9154 12.4599 13.5668L14.6457 14.4102C14.854 14.4965 15.0658 14.4102 15.1853 14.2342L16.9203 11.2957C17.0091 11.1197 16.9817 10.8873 16.8007 10.7412L14.9736 9.34336ZM8.47436 11.4684C6.79747 11.4684 5.42113 10.1303 5.42113 8.5C5.42113 6.86973 6.79747 5.53164 8.47436 5.53164C10.1512 5.53164 11.5276 6.86973 11.5276 8.5C11.5276 10.1303 10.1512 11.4684 8.47436 11.4684Z" fill="#5E84B6"/>
</svg>
