<svg width="24" height="21" viewBox="0 0 24 21" fill="none" xmlns="http://www.w3.org/2000/svg">
<path fill-rule="evenodd" clip-rule="evenodd" d="M16.9052 7.68429C18.1784 7.68429 19.2105 6.65219 19.2105 5.37903C19.2105 4.10587 18.1784 3.07377 16.9052 3.07377C15.6321 3.07377 14.6 4.10587 14.6 5.37903C14.6 6.65219 15.6321 7.68429 16.9052 7.68429ZM16.9052 9.22113C19.0271 9.22113 20.7473 7.50096 20.7473 5.37903C20.7473 3.25709 19.0271 1.53693 16.9052 1.53693C14.7833 1.53693 13.0631 3.25709 13.0631 5.37903C13.0631 7.50096 14.7833 9.22113 16.9052 9.22113Z" fill="#5E84B6"/>
<path fill-rule="evenodd" clip-rule="evenodd" d="M12.5583 10.2531C13.7112 9.10029 15.2748 8.45262 16.9052 8.45262C18.5356 8.45262 20.0992 9.10029 21.252 10.2531C22.4049 11.406 23.0525 12.9696 23.0525 14.6H21.5157C21.5157 13.3772 21.0299 12.2045 20.1653 11.3399C19.3007 10.4752 18.128 9.98946 16.9052 9.98946C15.6824 9.98946 14.5097 10.4752 13.645 11.3399C12.7804 12.2045 12.2947 13.3772 12.2947 14.6H10.7578C10.7578 12.9696 11.4055 11.406 12.5583 10.2531Z" fill="#5E84B6"/>
<path fill-rule="evenodd" clip-rule="evenodd" d="M6.14722 6.14736C7.42038 6.14736 8.45248 5.11526 8.45248 3.8421C8.45248 2.56894 7.42038 1.53684 6.14722 1.53684C4.87406 1.53684 3.84195 2.56894 3.84195 3.8421C3.84195 5.11526 4.87406 6.14736 6.14722 6.14736ZM6.14722 7.6842C8.26915 7.6842 9.98932 5.96403 9.98932 3.8421C9.98932 1.72017 8.26915 0 6.14722 0C4.02528 0 2.30511 1.72017 2.30511 3.8421C2.30511 5.96403 4.02528 7.6842 6.14722 7.6842Z" fill="#5E84B6"/>
<path fill-rule="evenodd" clip-rule="evenodd" d="M1.80052 8.71632C2.95337 7.56347 4.51698 6.9158 6.14736 6.9158C7.77774 6.9158 9.34135 7.56347 10.4942 8.71632C10.8516 9.07371 11.1605 9.47062 11.4165 9.89677L10.0992 10.6883C9.9072 10.3688 9.67558 10.0711 9.40749 9.80303C8.54285 8.93839 7.37015 8.45264 6.14736 8.45264C4.92458 8.45264 3.75187 8.93839 2.88723 9.80303C2.02259 10.6677 1.53684 11.8404 1.53684 13.0632H0C0 11.4328 0.647667 9.86918 1.80052 8.71632Z" fill="#5E84B6"/>
</svg>
