<svg width="31" height="31" viewBox="0 0 31 31" fill="none" xmlns="http://www.w3.org/2000/svg">
<path fill-rule="evenodd" clip-rule="evenodd" d="M19.0721 16.2069C21.0721 15.0043 22.4721 12.7995 22.4721 10.1939C22.4721 6.38559 19.3721 3.27884 15.5721 3.27884C11.7722 3.27884 8.67216 6.38559 8.67216 10.1939C8.67216 12.6993 10.0722 15.0043 12.0722 16.2069C7.67216 17.7102 4.47217 21.8191 4.47217 26.7298H6.67216C6.67216 21.8191 10.6722 17.8104 15.5721 17.8104C20.4721 17.8104 24.4721 21.8191 24.4721 26.7298H26.6721C26.6721 21.8191 23.4721 17.7102 19.0721 16.2069ZM15.5721 5.38341C18.2721 5.38341 20.4721 7.5882 20.4721 10.2941C20.4721 12.9999 18.2721 15.2047 15.5721 15.2047C12.8721 15.2047 10.6722 12.9999 10.6722 10.2941C10.6722 7.5882 12.8721 5.38341 15.5721 5.38341Z" fill="#666766"/>
</svg>
